<mxfile host="app.diagrams.net" modified="2023-05-01T18:52:01.449Z" agent="Mozilla/5.0 (Windows NT 10.0; Win64; x64) AppleWebKit/537.36 (KHTML, like Gecko) Chrome/112.0.0.0 Safari/537.36" etag="O3YmT7SLXNFS9NKoc_Cp" version="21.2.3" type="device">
  <diagram name="PÃ¡gina-3" id="U3eoR4R8W-bRCPzQ0Cac">
    <mxGraphModel dx="2244" dy="7142" grid="0" gridSize="10" guides="1" tooltips="1" connect="1" arrows="1" fold="1" page="0" pageScale="1" pageWidth="827" pageHeight="1169" math="0" shadow="0">
      <root>
        <mxCell id="0" />
        <mxCell id="1" parent="0" />
        <mxCell id="06fyKj-ccsbm8yx5DUTh-7" value="" style="shape=rect;fillColor=#ffffff;strokeColor=#eeeeee;shadow=1;fontSize=16;" parent="1" vertex="1">
          <mxGeometry x="264" y="-112" width="344" height="420" as="geometry" />
        </mxCell>
        <mxCell id="06fyKj-ccsbm8yx5DUTh-8" value="" style="shape=ellipse;strokeColor=none;fillColor=#999999;fontSize=16;" parent="06fyKj-ccsbm8yx5DUTh-7" vertex="1">
          <mxGeometry width="40" height="40" relative="1" as="geometry">
            <mxPoint x="15" y="15" as="offset" />
          </mxGeometry>
        </mxCell>
        <mxCell id="06fyKj-ccsbm8yx5DUTh-9" value="Title" style="text;html=1;whiteSpace=wrap;fontSize=16;" parent="06fyKj-ccsbm8yx5DUTh-7" vertex="1">
          <mxGeometry width="235" height="20" relative="1" as="geometry">
            <mxPoint x="65" y="15" as="offset" />
          </mxGeometry>
        </mxCell>
        <mxCell id="06fyKj-ccsbm8yx5DUTh-10" value="Subhead" style="text;fontColor=#999999;whiteSpace=wrap;html=1;fontSize=16;" parent="06fyKj-ccsbm8yx5DUTh-7" vertex="1">
          <mxGeometry width="235" height="20" relative="1" as="geometry">
            <mxPoint x="65" y="35" as="offset" />
          </mxGeometry>
        </mxCell>
        <mxCell id="06fyKj-ccsbm8yx5DUTh-11" value="" style="shape=rect;strokeColor=none;fillColor=#666666;resizeWidth=1;resizeHeight=1;fontSize=16;" parent="06fyKj-ccsbm8yx5DUTh-7" vertex="1">
          <mxGeometry x="0.0116" width="81" height="81" relative="1" as="geometry">
            <mxPoint y="70" as="offset" />
          </mxGeometry>
        </mxCell>
        <mxCell id="06fyKj-ccsbm8yx5DUTh-12" value="" style="shape=rect;strokeColor=none;fillColor=#666666;resizeWidth=1;resizeHeight=1;fontSize=16;" parent="06fyKj-ccsbm8yx5DUTh-7" vertex="1">
          <mxGeometry x="0.2587" width="81" height="81" relative="1" as="geometry">
            <mxPoint y="70" as="offset" />
          </mxGeometry>
        </mxCell>
        <mxCell id="06fyKj-ccsbm8yx5DUTh-13" value="" style="shape=rect;strokeColor=none;fillColor=#666666;resizeWidth=1;resizeHeight=1;fontSize=16;" parent="06fyKj-ccsbm8yx5DUTh-7" vertex="1">
          <mxGeometry x="0.5058" width="81" height="81" relative="1" as="geometry">
            <mxPoint y="70" as="offset" />
          </mxGeometry>
        </mxCell>
        <mxCell id="06fyKj-ccsbm8yx5DUTh-14" value="" style="shape=rect;strokeColor=none;fillColor=#666666;resizeWidth=1;resizeHeight=1;fontSize=16;" parent="06fyKj-ccsbm8yx5DUTh-7" vertex="1">
          <mxGeometry x="0.7529" width="81" height="81" relative="1" as="geometry">
            <mxPoint y="70" as="offset" />
          </mxGeometry>
        </mxCell>
        <mxCell id="06fyKj-ccsbm8yx5DUTh-15" value="" style="shape=rect;strokeColor=none;fillColor=#666666;resizeWidth=1;resizeHeight=1;fontSize=16;" parent="06fyKj-ccsbm8yx5DUTh-7" vertex="1">
          <mxGeometry x="0.0116" y="0.2024" width="81" height="81" relative="1" as="geometry">
            <mxPoint y="70" as="offset" />
          </mxGeometry>
        </mxCell>
        <mxCell id="06fyKj-ccsbm8yx5DUTh-16" value="" style="shape=rect;strokeColor=none;fillColor=#666666;resizeWidth=1;resizeHeight=1;fontSize=16;" parent="06fyKj-ccsbm8yx5DUTh-7" vertex="1">
          <mxGeometry x="0.2587" y="0.2024" width="81" height="81" relative="1" as="geometry">
            <mxPoint y="70" as="offset" />
          </mxGeometry>
        </mxCell>
        <mxCell id="06fyKj-ccsbm8yx5DUTh-17" value="" style="shape=rect;strokeColor=none;fillColor=#666666;resizeWidth=1;resizeHeight=1;fontSize=16;" parent="06fyKj-ccsbm8yx5DUTh-7" vertex="1">
          <mxGeometry x="0.5058" y="0.2024" width="81" height="81" relative="1" as="geometry">
            <mxPoint y="70" as="offset" />
          </mxGeometry>
        </mxCell>
        <mxCell id="06fyKj-ccsbm8yx5DUTh-18" value="" style="shape=rect;strokeColor=none;fillColor=#666666;resizeWidth=1;resizeHeight=1;fontSize=16;" parent="06fyKj-ccsbm8yx5DUTh-7" vertex="1">
          <mxGeometry x="0.7529" y="0.2024" width="81" height="81" relative="1" as="geometry">
            <mxPoint y="70" as="offset" />
          </mxGeometry>
        </mxCell>
        <mxCell id="06fyKj-ccsbm8yx5DUTh-19" value="" style="shape=rect;strokeColor=none;fillColor=#666666;resizeWidth=1;resizeHeight=1;fontSize=16;" parent="06fyKj-ccsbm8yx5DUTh-7" vertex="1">
          <mxGeometry x="0.0116" y="0.4048" width="81" height="81" relative="1" as="geometry">
            <mxPoint y="70" as="offset" />
          </mxGeometry>
        </mxCell>
        <mxCell id="06fyKj-ccsbm8yx5DUTh-20" value="" style="shape=rect;strokeColor=none;fillColor=#666666;resizeWidth=1;resizeHeight=1;fontSize=16;" parent="06fyKj-ccsbm8yx5DUTh-7" vertex="1">
          <mxGeometry x="0.2587" y="0.4048" width="81" height="81" relative="1" as="geometry">
            <mxPoint y="70" as="offset" />
          </mxGeometry>
        </mxCell>
        <mxCell id="06fyKj-ccsbm8yx5DUTh-21" value="" style="shape=rect;strokeColor=none;fillColor=#666666;resizeWidth=1;resizeHeight=1;fontSize=16;" parent="06fyKj-ccsbm8yx5DUTh-7" vertex="1">
          <mxGeometry x="0.5058" y="0.4048" width="81" height="81" relative="1" as="geometry">
            <mxPoint y="70" as="offset" />
          </mxGeometry>
        </mxCell>
        <mxCell id="06fyKj-ccsbm8yx5DUTh-22" value="" style="shape=rect;strokeColor=none;fillColor=#666666;resizeWidth=1;resizeHeight=1;fontSize=16;" parent="06fyKj-ccsbm8yx5DUTh-7" vertex="1">
          <mxGeometry x="0.7529" y="0.4048" width="81" height="81" relative="1" as="geometry">
            <mxPoint y="70" as="offset" />
          </mxGeometry>
        </mxCell>
        <mxCell id="06fyKj-ccsbm8yx5DUTh-23" value="ACTION" style="shape=rect;strokeColor=#eeeeee;fillColor=#ffffff;;whiteSpace=wrap;align=left;spacingLeft=14;fontColor=#737373;fontStyle=1;fontSize=14;resizeWidth=1;html=1;" parent="06fyKj-ccsbm8yx5DUTh-7" vertex="1">
          <mxGeometry y="1" width="344" height="48" relative="1" as="geometry">
            <mxPoint y="-96" as="offset" />
          </mxGeometry>
        </mxCell>
        <mxCell id="06fyKj-ccsbm8yx5DUTh-24" value="ACTION" style="shape=rect;strokeColor=#eeeeee;fillColor=#ffffff;;whiteSpace=wrap;align=left;spacingLeft=14;fontColor=#737373;fontStyle=1;fontSize=14;resizeWidth=1;html=1;" parent="06fyKj-ccsbm8yx5DUTh-7" vertex="1">
          <mxGeometry y="1" width="344" height="48" relative="1" as="geometry">
            <mxPoint y="-48" as="offset" />
          </mxGeometry>
        </mxCell>
        <mxCell id="06fyKj-ccsbm8yx5DUTh-25" value="" style="shape=rect;fillColor=#BDBDBD;strokeColor=#eeeeee;shadow=1;fontSize=16;" parent="1" vertex="1">
          <mxGeometry x="-171" y="-80" width="342" height="356" as="geometry" />
        </mxCell>
        <mxCell id="06fyKj-ccsbm8yx5DUTh-26" value="" style="dashed=0;shape=rect;strokeColor=none;fillColor=#ffffff;resizeWidth=1;fontSize=16;" parent="06fyKj-ccsbm8yx5DUTh-25" vertex="1">
          <mxGeometry width="342" height="72" relative="1" as="geometry" />
        </mxCell>
        <mxCell id="06fyKj-ccsbm8yx5DUTh-27" value="" style="shape=ellipse;strokeColor=none;fillColor=#BDBDBD;fontSize=16;" parent="06fyKj-ccsbm8yx5DUTh-25" vertex="1">
          <mxGeometry width="40" height="40" relative="1" as="geometry">
            <mxPoint x="16" y="16" as="offset" />
          </mxGeometry>
        </mxCell>
        <mxCell id="06fyKj-ccsbm8yx5DUTh-28" value="Title" style="text;spacingLeft=10;resizeWidth=1;whiteSpace=wrap;html=1;fontSize=16;" parent="06fyKj-ccsbm8yx5DUTh-25" vertex="1">
          <mxGeometry width="240" height="20" relative="1" as="geometry">
            <mxPoint x="56" y="16" as="offset" />
          </mxGeometry>
        </mxCell>
        <mxCell id="06fyKj-ccsbm8yx5DUTh-29" value="Subhead" style="text;spacingLeft=10;fontColor=#999999;resizeWidth=1;whiteSpace=wrap;html=1;fontSize=16;" parent="06fyKj-ccsbm8yx5DUTh-25" vertex="1">
          <mxGeometry width="240" height="20" relative="1" as="geometry">
            <mxPoint x="56" y="36" as="offset" />
          </mxGeometry>
        </mxCell>
        <mxCell id="06fyKj-ccsbm8yx5DUTh-30" value="" style="dashed=0;shape=rect;strokeColor=none;fillColor=#ffffff;resizeWidth=1;fontSize=16;" parent="06fyKj-ccsbm8yx5DUTh-25" vertex="1">
          <mxGeometry y="1" width="342" height="92" relative="1" as="geometry">
            <mxPoint y="-92" as="offset" />
          </mxGeometry>
        </mxCell>
        <mxCell id="06fyKj-ccsbm8yx5DUTh-31" value="ACTION 1" style="shape=rect;fontSize=13;strokeColor=none;fillColor=#ffffff;fontColor=#444444;fontStyle=1;whiteSpace=wrap;html=1;" parent="06fyKj-ccsbm8yx5DUTh-30" vertex="1">
          <mxGeometry y="1" width="70" height="32" relative="1" as="geometry">
            <mxPoint x="8" y="-76" as="offset" />
          </mxGeometry>
        </mxCell>
        <mxCell id="06fyKj-ccsbm8yx5DUTh-32" value="ACTION 2" style="shape=rect;fontSize=13;strokeColor=none;fillColor=#ffffff;fontColor=#444444;fontStyle=1;whiteSpace=wrap;html=1;" parent="06fyKj-ccsbm8yx5DUTh-30" vertex="1">
          <mxGeometry y="1" width="70" height="32" relative="1" as="geometry">
            <mxPoint x="8" y="-40" as="offset" />
          </mxGeometry>
        </mxCell>
        <mxCell id="06fyKj-ccsbm8yx5DUTh-38" value="&lt;b&gt;&lt;font style=&quot;font-size: 20px&quot;&gt;Card title&lt;/font&gt;&lt;/b&gt;&lt;br&gt;&lt;br&gt;This is a wider card with supporting text below as a natural lead-in to additional content. This content is a little bit longer." style="html=1;shadow=0;dashed=0;shape=mxgraph.bootstrap.rrect;rSize=5;strokeColor=#DFDFDF;html=1;whiteSpace=wrap;fillColor=#ffffff;fontColor=#000000;verticalAlign=top;align=left;spacing=20;spacingBottom=0;fontSize=14;spacingTop=160;" parent="1" vertex="1">
          <mxGeometry x="264" y="911" width="370" height="290" as="geometry" />
        </mxCell>
        <mxCell id="06fyKj-ccsbm8yx5DUTh-39" value="Image cap" style="html=1;shadow=0;dashed=0;shape=mxgraph.bootstrap.topButton;rSize=5;perimeter=none;whiteSpace=wrap;fillColor=#868E96;strokeColor=#DFDFDF;fontColor=#DEE2E6;resizeWidth=1;fontSize=18;" parent="06fyKj-ccsbm8yx5DUTh-38" vertex="1">
          <mxGeometry width="370" height="160" relative="1" as="geometry" />
        </mxCell>
        <mxCell id="06fyKj-ccsbm8yx5DUTh-40" value="&lt;b&gt;&lt;font style=&quot;font-size: 20px&quot;&gt;Card title&lt;/font&gt;&lt;/b&gt;&lt;br&gt;&lt;br&gt;This is a wider card with supporting text below as a natural lead-in to additional content." style="html=1;shadow=0;dashed=0;shape=mxgraph.bootstrap.rrect;rSize=5;strokeColor=#DFDFDF;html=1;whiteSpace=wrap;fillColor=#ffffff;fontColor=#000000;verticalAlign=top;align=left;spacing=20;spacingBottom=0;fontSize=14;spacingTop=160;" parent="1" vertex="1">
          <mxGeometry x="-181" y="432" width="774" height="270" as="geometry" />
        </mxCell>
        <mxCell id="06fyKj-ccsbm8yx5DUTh-41" value="Image cap" style="html=1;shadow=0;dashed=0;shape=mxgraph.bootstrap.topButton;rSize=5;perimeter=none;whiteSpace=wrap;fillColor=#868E96;strokeColor=#DFDFDF;fontColor=#DEE2E6;resizeWidth=1;fontSize=18;" parent="06fyKj-ccsbm8yx5DUTh-40" vertex="1">
          <mxGeometry width="370" height="160" relative="1" as="geometry" />
        </mxCell>
        <mxCell id="06fyKj-ccsbm8yx5DUTh-45" value="Navbar text with an inline element" style="html=1;shadow=0;dashed=0;fillColor=#e1d5e7;strokeColor=#9673a6;fontSize=16;align=right;spacing=15;" parent="1" vertex="1">
          <mxGeometry x="-194" y="781" width="800" height="60" as="geometry" />
        </mxCell>
        <mxCell id="06fyKj-ccsbm8yx5DUTh-46" value="Navbar w/ text" style="strokeColor=none;html=1;whiteSpace=wrap;fillColor=none;fontColor=#181819;align=left;fontSize=16;spacing=10;" parent="06fyKj-ccsbm8yx5DUTh-45" vertex="1">
          <mxGeometry width="130" height="40" relative="1" as="geometry">
            <mxPoint x="10" y="10" as="offset" />
          </mxGeometry>
        </mxCell>
        <mxCell id="06fyKj-ccsbm8yx5DUTh-47" value="Home" style="strokeColor=none;html=1;whiteSpace=wrap;fillColor=none;fontColor=#181819;align=left;fontSize=14;spacing=10;" parent="06fyKj-ccsbm8yx5DUTh-45" vertex="1">
          <mxGeometry width="60" height="40" relative="1" as="geometry">
            <mxPoint x="140" y="10" as="offset" />
          </mxGeometry>
        </mxCell>
        <mxCell id="06fyKj-ccsbm8yx5DUTh-48" value="Features" style="strokeColor=none;html=1;whiteSpace=wrap;fillColor=none;fontColor=#7C7C7D;align=left;fontSize=14;spacing=10;" parent="06fyKj-ccsbm8yx5DUTh-45" vertex="1">
          <mxGeometry width="80" height="40" relative="1" as="geometry">
            <mxPoint x="200" y="10" as="offset" />
          </mxGeometry>
        </mxCell>
        <mxCell id="06fyKj-ccsbm8yx5DUTh-49" value="Pricing" style="strokeColor=none;html=1;whiteSpace=wrap;fillColor=none;fontColor=#7C7C7D;align=left;fontSize=14;spacing=10;" parent="06fyKj-ccsbm8yx5DUTh-45" vertex="1">
          <mxGeometry width="60" height="40" relative="1" as="geometry">
            <mxPoint x="280" y="10" as="offset" />
          </mxGeometry>
        </mxCell>
        <mxCell id="06fyKj-ccsbm8yx5DUTh-33" value="&lt;b&gt;&lt;font style=&quot;font-size: 20px&quot;&gt;Card title&lt;/font&gt;&lt;/b&gt;&lt;br style=&quot;font-size: 14px&quot;&gt;&lt;br style=&quot;font-size: 14px&quot;&gt;Some quick example text to build on the card title and make up the bulk of the card&#39;s content." style="html=1;shadow=0;dashed=0;shape=mxgraph.bootstrap.rrect;rSize=5;strokeColor=#DFDFDF;html=1;whiteSpace=wrap;fillColor=#ffffff;fontColor=#000000;verticalAlign=bottom;align=left;spacing=20;spacingBottom=50;fontSize=14;" parent="1" vertex="1">
          <mxGeometry x="258" y="1421" width="335" height="350" as="geometry" />
        </mxCell>
        <mxCell id="06fyKj-ccsbm8yx5DUTh-34" value="Image cap" style="html=1;shadow=0;dashed=0;shape=mxgraph.bootstrap.topButton;rSize=5;perimeter=none;whiteSpace=wrap;fillColor=#868E96;strokeColor=#DFDFDF;fontColor=#DEE2E6;resizeWidth=1;fontSize=18;" parent="06fyKj-ccsbm8yx5DUTh-33" vertex="1">
          <mxGeometry width="250" height="180" relative="1" as="geometry" />
        </mxCell>
        <mxCell id="06fyKj-ccsbm8yx5DUTh-35" value="Go somewhere" style="html=1;shadow=0;dashed=0;shape=mxgraph.bootstrap.rrect;rSize=5;perimeter=none;whiteSpace=wrap;fillColor=#0085FC;strokeColor=none;fontColor=#ffffff;resizeWidth=1;fontSize=14;" parent="06fyKj-ccsbm8yx5DUTh-33" vertex="1">
          <mxGeometry y="1" width="120" height="40" relative="1" as="geometry">
            <mxPoint x="20" y="-60" as="offset" />
          </mxGeometry>
        </mxCell>
        <mxCell id="06fyKj-ccsbm8yx5DUTh-36" value="&lt;b&gt;&lt;font style=&quot;font-size: 20px&quot;&gt;Card title&lt;/font&gt;&lt;/b&gt;&lt;br&gt;&lt;br&gt;This is a wider card with supporting text below as a natural lead-in to additional content. This content is a little bit longer." style="html=1;shadow=0;dashed=0;shape=mxgraph.bootstrap.rrect;rSize=5;strokeColor=#DFDFDF;html=1;whiteSpace=wrap;fillColor=#ffffff;fontColor=#000000;verticalAlign=top;align=left;spacing=20;spacingBottom=0;fontSize=14;spacingTop=160;" parent="1" vertex="1">
          <mxGeometry x="-174" y="897" width="370" height="366" as="geometry" />
        </mxCell>
        <mxCell id="06fyKj-ccsbm8yx5DUTh-37" value="Image cap" style="html=1;shadow=0;dashed=0;shape=mxgraph.bootstrap.topButton;rSize=5;perimeter=none;whiteSpace=wrap;fillColor=#868E96;strokeColor=#DFDFDF;fontColor=#DEE2E6;resizeWidth=1;fontSize=18;" parent="06fyKj-ccsbm8yx5DUTh-36" vertex="1">
          <mxGeometry width="370" height="160" relative="1" as="geometry">
            <mxPoint x="3" y="-3" as="offset" />
          </mxGeometry>
        </mxCell>
        <mxCell id="06fyKj-ccsbm8yx5DUTh-44" value="Success" style="html=1;shadow=0;dashed=0;shape=mxgraph.bootstrap.rrect;rSize=5;strokeColor=none;strokeWidth=1;fillColor=#33A64C;fontColor=#FFFFFF;whiteSpace=wrap;align=center;verticalAlign=middle;spacingLeft=0;fontStyle=0;fontSize=16;spacing=5;" parent="06fyKj-ccsbm8yx5DUTh-36" vertex="1">
          <mxGeometry x="136" y="318" width="90" height="40" as="geometry" />
        </mxCell>
        <mxCell id="06fyKj-ccsbm8yx5DUTh-50" value="Acceso" style="fillColor=none;strokeColor=none;fontSize=14;fontColor=#0085FC;align=left;spacing=10;" parent="1" vertex="1">
          <mxGeometry x="-376.5" y="1382" width="80" height="30" as="geometry" />
        </mxCell>
        <mxCell id="06fyKj-ccsbm8yx5DUTh-51" value="Registro" style="fillColor=none;strokeColor=none;fontSize=14;fontColor=#0085FC;align=left;spacing=10;" parent="1" vertex="1">
          <mxGeometry x="-377" y="1427" width="80" height="30" as="geometry" />
        </mxCell>
        <mxCell id="06fyKj-ccsbm8yx5DUTh-52" value="Acceso" style="fillColor=none;strokeColor=none;fontSize=14;fontColor=#0085FC;align=left;spacing=10;" parent="1" vertex="1">
          <mxGeometry x="-400" y="1468" width="80" height="30" as="geometry" />
        </mxCell>
        <mxCell id="06fyKj-ccsbm8yx5DUTh-53" value="Disabled" style="fillColor=none;strokeColor=none;fontSize=14;fontColor=#7D868C;align=left;spacing=10;" parent="1" vertex="1">
          <mxGeometry x="-162" y="1422" width="80" height="30" as="geometry" />
        </mxCell>
        <mxCell id="06fyKj-ccsbm8yx5DUTh-54" value="" style="html=1;shadow=0;dashed=0;shape=mxgraph.bootstrap.rrect;rSize=5;strokeColor=#CED4DA;html=1;whiteSpace=wrap;fillColor=#FFFFFF;fontColor=#7D868C;align=left;spacingLeft=0;spacing=15;fontSize=14;" parent="1" vertex="1">
          <mxGeometry x="-400" y="1535" width="297" height="30" as="geometry" />
        </mxCell>
        <mxCell id="06fyKj-ccsbm8yx5DUTh-56" value="&lt;span style=&quot;color: rgb(125, 134, 140); font-family: Helvetica; font-size: 14px; font-style: normal; font-variant-ligatures: normal; font-variant-caps: normal; font-weight: 400; letter-spacing: normal; orphans: 2; text-align: left; text-indent: 0px; text-transform: none; widows: 2; word-spacing: 0px; -webkit-text-stroke-width: 0px; background-color: rgb(255, 255, 255); text-decoration-thickness: initial; text-decoration-style: initial; text-decoration-color: initial; float: none; display: inline !important;&quot;&gt;DirecciÃ³n de correo electrÃ³nico&lt;/span&gt;" style="text;whiteSpace=wrap;html=1;fontSize=16;" parent="1" vertex="1">
          <mxGeometry x="-395" y="1505" width="209" height="41" as="geometry" />
        </mxCell>
        <mxCell id="06fyKj-ccsbm8yx5DUTh-57" value="&lt;span style=&quot;color: rgb(125, 134, 140); font-family: Helvetica; font-size: 14px; font-style: normal; font-variant-ligatures: normal; font-variant-caps: normal; font-weight: 400; letter-spacing: normal; orphans: 2; text-align: left; text-indent: 0px; text-transform: none; widows: 2; word-spacing: 0px; -webkit-text-stroke-width: 0px; background-color: rgb(255, 255, 255); text-decoration-thickness: initial; text-decoration-style: initial; text-decoration-color: initial; float: none; display: inline !important;&quot;&gt;DirecciÃ³n de correo electrÃ³nico&lt;/span&gt;" style="text;whiteSpace=wrap;html=1;fontSize=16;" parent="1" vertex="1">
          <mxGeometry x="-399" y="1505" width="209" height="41" as="geometry" />
        </mxCell>
        <mxCell id="06fyKj-ccsbm8yx5DUTh-58" value="" style="html=1;shadow=0;dashed=0;shape=mxgraph.bootstrap.rrect;rSize=5;strokeColor=#CED4DA;html=1;whiteSpace=wrap;fillColor=#FFFFFF;fontColor=#7D868C;align=left;spacingLeft=0;spacing=15;fontSize=14;" parent="1" vertex="1">
          <mxGeometry x="-399" y="1615" width="297" height="30" as="geometry" />
        </mxCell>
        <mxCell id="06fyKj-ccsbm8yx5DUTh-59" value="&lt;span style=&quot;color: rgb(125, 134, 140); font-family: Helvetica; font-size: 14px; font-style: normal; font-variant-ligatures: normal; font-variant-caps: normal; font-weight: 400; letter-spacing: normal; orphans: 2; text-align: left; text-indent: 0px; text-transform: none; widows: 2; word-spacing: 0px; -webkit-text-stroke-width: 0px; background-color: rgb(255, 255, 255); text-decoration-thickness: initial; text-decoration-style: initial; text-decoration-color: initial; float: none; display: inline !important;&quot;&gt;ContraseÃ±a&lt;/span&gt;" style="text;whiteSpace=wrap;html=1;fontSize=16;" parent="1" vertex="1">
          <mxGeometry x="-399" y="1578" width="209" height="41" as="geometry" />
        </mxCell>
        <mxCell id="06fyKj-ccsbm8yx5DUTh-60" value="" style="whiteSpace=wrap;html=1;aspect=fixed;fontSize=16;" parent="1" vertex="1">
          <mxGeometry x="-399" y="1656" width="21" height="21" as="geometry" />
        </mxCell>
        <mxCell id="06fyKj-ccsbm8yx5DUTh-61" value="AcuÃ©rdate de mÃ­" style="fillColor=none;strokeColor=none;fontSize=14;fontColor=#7D868C;align=left;spacing=10;" parent="1" vertex="1">
          <mxGeometry x="-362" y="1651.5" width="124" height="30" as="geometry" />
        </mxCell>
        <mxCell id="06fyKj-ccsbm8yx5DUTh-62" value="Â¿Olvidaste tu contraseÃ±a?" style="fillColor=none;strokeColor=none;fontSize=14;fontColor=#7D868C;align=left;spacing=10;" parent="1" vertex="1">
          <mxGeometry x="-297" y="1702" width="186" height="30" as="geometry" />
        </mxCell>
        <mxCell id="06fyKj-ccsbm8yx5DUTh-63" value="Acceder" style="html=1;shadow=0;dashed=0;shape=mxgraph.bootstrap.rrect;rSize=5;strokeColor=none;strokeWidth=1;fillColor=#33A64C;fontColor=#FFFFFF;whiteSpace=wrap;align=center;verticalAlign=middle;spacingLeft=0;fontStyle=0;fontSize=16;spacing=5;" parent="1" vertex="1">
          <mxGeometry x="-400" y="1697" width="90" height="40" as="geometry" />
        </mxCell>
        <mxCell id="06fyKj-ccsbm8yx5DUTh-64" value="Registro" style="fillColor=none;strokeColor=none;fontSize=14;fontColor=#0085FC;align=left;spacing=10;" parent="1" vertex="1">
          <mxGeometry x="-403" y="1820" width="80" height="30" as="geometry" />
        </mxCell>
        <mxCell id="06fyKj-ccsbm8yx5DUTh-65" value="" style="html=1;shadow=0;dashed=0;shape=mxgraph.bootstrap.rrect;rSize=5;strokeColor=#CED4DA;html=1;whiteSpace=wrap;fillColor=#FFFFFF;fontColor=#7D868C;align=left;spacingLeft=0;spacing=15;fontSize=14;" parent="1" vertex="1">
          <mxGeometry x="-403" y="1887" width="297" height="30" as="geometry" />
        </mxCell>
        <mxCell id="06fyKj-ccsbm8yx5DUTh-66" value="&lt;span style=&quot;color: rgb(125, 134, 140); font-family: Helvetica; font-size: 14px; font-style: normal; font-variant-ligatures: normal; font-variant-caps: normal; font-weight: 400; letter-spacing: normal; orphans: 2; text-align: left; text-indent: 0px; text-transform: none; widows: 2; word-spacing: 0px; -webkit-text-stroke-width: 0px; background-color: rgb(255, 255, 255); text-decoration-thickness: initial; text-decoration-style: initial; text-decoration-color: initial; float: none; display: inline !important;&quot;&gt;Nombre&lt;/span&gt;" style="text;whiteSpace=wrap;html=1;fontSize=16;" parent="1" vertex="1">
          <mxGeometry x="-402" y="1857" width="209" height="41" as="geometry" />
        </mxCell>
        <mxCell id="06fyKj-ccsbm8yx5DUTh-67" value="Registrar" style="html=1;shadow=0;dashed=0;shape=mxgraph.bootstrap.rrect;rSize=5;strokeColor=none;strokeWidth=1;fillColor=#33A64C;fontColor=#FFFFFF;whiteSpace=wrap;align=center;verticalAlign=middle;spacingLeft=0;fontStyle=0;fontSize=16;spacing=5;" parent="1" vertex="1">
          <mxGeometry x="-407" y="2153" width="90" height="40" as="geometry" />
        </mxCell>
        <mxCell id="06fyKj-ccsbm8yx5DUTh-68" value="" style="html=1;shadow=0;dashed=0;shape=mxgraph.bootstrap.rrect;rSize=5;strokeColor=#CED4DA;html=1;whiteSpace=wrap;fillColor=#FFFFFF;fontColor=#7D868C;align=left;spacingLeft=0;spacing=15;fontSize=14;" parent="1" vertex="1">
          <mxGeometry x="-403" y="1959" width="297" height="30" as="geometry" />
        </mxCell>
        <mxCell id="06fyKj-ccsbm8yx5DUTh-69" value="&lt;span style=&quot;color: rgb(125, 134, 140); font-family: Helvetica; font-size: 14px; font-style: normal; font-variant-ligatures: normal; font-variant-caps: normal; font-weight: 400; letter-spacing: normal; orphans: 2; text-align: left; text-indent: 0px; text-transform: none; widows: 2; word-spacing: 0px; -webkit-text-stroke-width: 0px; background-color: rgb(255, 255, 255); text-decoration-thickness: initial; text-decoration-style: initial; text-decoration-color: initial; float: none; display: inline !important;&quot;&gt;DirecciÃ³n de correo electrÃ³nico&lt;/span&gt;" style="text;whiteSpace=wrap;html=1;fontSize=16;" parent="1" vertex="1">
          <mxGeometry x="-404.5" y="1927" width="209" height="41" as="geometry" />
        </mxCell>
        <mxCell id="06fyKj-ccsbm8yx5DUTh-70" value="" style="html=1;shadow=0;dashed=0;shape=mxgraph.bootstrap.rrect;rSize=5;strokeColor=#CED4DA;html=1;whiteSpace=wrap;fillColor=#FFFFFF;fontColor=#7D868C;align=left;spacingLeft=0;spacing=15;fontSize=14;" parent="1" vertex="1">
          <mxGeometry x="-404.5" y="2034" width="297" height="30" as="geometry" />
        </mxCell>
        <mxCell id="06fyKj-ccsbm8yx5DUTh-71" value="&lt;span style=&quot;color: rgb(125, 134, 140); font-family: Helvetica; font-size: 14px; font-style: normal; font-variant-ligatures: normal; font-variant-caps: normal; font-weight: 400; letter-spacing: normal; orphans: 2; text-align: left; text-indent: 0px; text-transform: none; widows: 2; word-spacing: 0px; -webkit-text-stroke-width: 0px; background-color: rgb(255, 255, 255); text-decoration-thickness: initial; text-decoration-style: initial; text-decoration-color: initial; float: none; display: inline !important;&quot;&gt;ContraseÃ±a&lt;/span&gt;" style="text;whiteSpace=wrap;html=1;fontSize=16;" parent="1" vertex="1">
          <mxGeometry x="-403.5" y="2004" width="209" height="41" as="geometry" />
        </mxCell>
        <mxCell id="06fyKj-ccsbm8yx5DUTh-72" value="" style="html=1;shadow=0;dashed=0;shape=mxgraph.bootstrap.rrect;rSize=5;strokeColor=#CED4DA;html=1;whiteSpace=wrap;fillColor=#FFFFFF;fontColor=#7D868C;align=left;spacingLeft=0;spacing=15;fontSize=14;" parent="1" vertex="1">
          <mxGeometry x="-408" y="2101" width="297" height="30" as="geometry" />
        </mxCell>
        <mxCell id="06fyKj-ccsbm8yx5DUTh-73" value="&lt;span style=&quot;color: rgb(125, 134, 140); font-family: Helvetica; font-size: 14px; font-style: normal; font-variant-ligatures: normal; font-variant-caps: normal; font-weight: 400; letter-spacing: normal; orphans: 2; text-align: left; text-indent: 0px; text-transform: none; widows: 2; word-spacing: 0px; -webkit-text-stroke-width: 0px; background-color: rgb(255, 255, 255); text-decoration-thickness: initial; text-decoration-style: initial; text-decoration-color: initial; float: none; display: inline !important;&quot;&gt;Confirmar ContraseÃ±a&lt;/span&gt;" style="text;whiteSpace=wrap;html=1;fontSize=16;" parent="1" vertex="1">
          <mxGeometry x="-407" y="2071" width="209" height="41" as="geometry" />
        </mxCell>
        <mxCell id="BRpF6eG8Of8ztNLreuFv-1" value="verificaciÃ³n de email" style="text;html=1;strokeColor=none;fillColor=none;align=center;verticalAlign=middle;whiteSpace=wrap;rounded=0;fontSize=16;" parent="1" vertex="1">
          <mxGeometry x="-462" y="2252" width="251" height="30" as="geometry" />
        </mxCell>
        <mxCell id="BRpF6eG8Of8ztNLreuFv-2" value="Reenviar email" style="html=1;shadow=0;dashed=0;shape=mxgraph.bootstrap.rrect;rSize=5;strokeColor=none;strokeWidth=1;fillColor=#33A64C;fontColor=#FFFFFF;whiteSpace=wrap;align=center;verticalAlign=middle;spacingLeft=0;fontStyle=0;fontSize=16;spacing=5;" parent="1" vertex="1">
          <mxGeometry x="-410" y="2291" width="125" height="40" as="geometry" />
        </mxCell>
        <mxCell id="BRpF6eG8Of8ztNLreuFv-4" value="&lt;span style=&quot;color: rgb(125, 134, 140); font-family: Helvetica; font-size: 14px; font-style: normal; font-variant-ligatures: normal; font-variant-caps: normal; font-weight: 400; letter-spacing: normal; orphans: 2; text-align: left; text-indent: 0px; text-transform: none; widows: 2; word-spacing: 0px; -webkit-text-stroke-width: 0px; background-color: rgb(255, 255, 255); text-decoration-thickness: initial; text-decoration-style: initial; text-decoration-color: initial; float: none; display: inline !important;&quot;&gt;Confirmar ContraseÃ±a&lt;/span&gt;" style="text;whiteSpace=wrap;html=1;fontSize=16;" parent="1" vertex="1">
          <mxGeometry x="-409" y="2071" width="209" height="41" as="geometry" />
        </mxCell>
        <mxCell id="BRpF6eG8Of8ztNLreuFv-5" value="" style="html=1;shadow=0;dashed=0;shape=mxgraph.bootstrap.rrect;rSize=5;strokeColor=#CED4DA;html=1;whiteSpace=wrap;fillColor=#FFFFFF;fontColor=#7D868C;align=left;spacingLeft=0;spacing=15;fontSize=14;" parent="1" vertex="1">
          <mxGeometry x="-410" y="2101" width="297" height="30" as="geometry" />
        </mxCell>
        <mxCell id="BRpF6eG8Of8ztNLreuFv-6" value="Enviar correo electrÃ³nico" style="html=1;shadow=0;dashed=0;shape=mxgraph.bootstrap.rrect;rSize=5;strokeColor=none;strokeWidth=1;fillColor=#33A64C;fontColor=#FFFFFF;whiteSpace=wrap;align=center;verticalAlign=middle;spacingLeft=0;fontStyle=0;fontSize=16;spacing=5;" parent="1" vertex="1">
          <mxGeometry x="-413" y="2508" width="204" height="40" as="geometry" />
        </mxCell>
        <mxCell id="BRpF6eG8Of8ztNLreuFv-7" value="&lt;span style=&quot;color: rgb(125, 134, 140); font-family: Helvetica; font-size: 14px; font-style: normal; font-variant-ligatures: normal; font-variant-caps: normal; font-weight: 400; letter-spacing: normal; orphans: 2; text-align: left; text-indent: 0px; text-transform: none; widows: 2; word-spacing: 0px; -webkit-text-stroke-width: 0px; background-color: rgb(255, 255, 255); text-decoration-thickness: initial; text-decoration-style: initial; text-decoration-color: initial; float: none; display: inline !important;&quot;&gt;Restablecer la contraseÃ±a&lt;br&gt;&lt;br&gt;DirecciÃ³n de correo electrÃ³nico&lt;br&gt;&lt;/span&gt;" style="text;whiteSpace=wrap;html=1;fontSize=16;" parent="1" vertex="1">
          <mxGeometry x="-412" y="2401" width="209" height="41" as="geometry" />
        </mxCell>
        <mxCell id="BRpF6eG8Of8ztNLreuFv-8" value="" style="html=1;shadow=0;dashed=0;shape=mxgraph.bootstrap.rrect;rSize=5;strokeColor=#CED4DA;html=1;whiteSpace=wrap;fillColor=#FFFFFF;fontColor=#7D868C;align=left;spacingLeft=0;spacing=15;fontSize=14;" parent="1" vertex="1">
          <mxGeometry x="-414" y="2464" width="297" height="30" as="geometry" />
        </mxCell>
        <mxCell id="BRpF6eG8Of8ztNLreuFv-9" value="DashBoard&lt;br&gt;Â¡Estas conectado!" style="text;html=1;strokeColor=none;fillColor=none;align=center;verticalAlign=middle;whiteSpace=wrap;rounded=0;fontSize=16;" parent="1" vertex="1">
          <mxGeometry x="-441" y="2625" width="157" height="30" as="geometry" />
        </mxCell>
        <mxCell id="BRpF6eG8Of8ztNLreuFv-11" value="" style="shape=waypoint;sketch=0;fillStyle=solid;size=6;pointerEvents=1;points=[];fillColor=none;resizable=0;rotatable=0;perimeter=centerPerimeter;snapToPoint=1;fontSize=16;" parent="1" vertex="1">
          <mxGeometry x="-398" y="1432" width="20" height="20" as="geometry" />
        </mxCell>
        <mxCell id="BRpF6eG8Of8ztNLreuFv-12" value="" style="shape=waypoint;sketch=0;fillStyle=solid;size=6;pointerEvents=1;points=[];fillColor=none;resizable=0;rotatable=0;perimeter=centerPerimeter;snapToPoint=1;fontSize=16;" parent="1" vertex="1">
          <mxGeometry x="-396.5" y="1390" width="20" height="20" as="geometry" />
        </mxCell>
        <mxCell id="88yHHtkOrPNAxC5C-WaW-4" value="" style="rounded=0;whiteSpace=wrap;html=1;" parent="1" vertex="1">
          <mxGeometry x="-236" y="-1752" width="736" height="630" as="geometry" />
        </mxCell>
        <mxCell id="88yHHtkOrPNAxC5C-WaW-5" value="" style="rounded=0;whiteSpace=wrap;html=1;" parent="1" vertex="1">
          <mxGeometry x="-235" y="-1750" width="734" height="60" as="geometry" />
        </mxCell>
        <mxCell id="88yHHtkOrPNAxC5C-WaW-7" value="Text" style="text;html=1;strokeColor=none;fillColor=none;align=center;verticalAlign=middle;whiteSpace=wrap;rounded=0;" parent="1" vertex="1">
          <mxGeometry x="-696" y="-1478" width="60" height="30" as="geometry" />
        </mxCell>
        <mxCell id="88yHHtkOrPNAxC5C-WaW-8" value="Acceso" style="text;html=1;strokeColor=none;fillColor=none;align=center;verticalAlign=middle;whiteSpace=wrap;rounded=0;fontSize=18;" parent="1" vertex="1">
          <mxGeometry x="-211" y="-1731" width="60" height="30" as="geometry" />
        </mxCell>
        <mxCell id="88yHHtkOrPNAxC5C-WaW-10" value="Acceso" style="fillColor=none;strokeColor=none;fontSize=14;fontColor=#0085FC;align=left;spacing=10;" parent="1" vertex="1">
          <mxGeometry x="-404" y="1468" width="80" height="30" as="geometry" />
        </mxCell>
        <mxCell id="88yHHtkOrPNAxC5C-WaW-11" value="&lt;span style=&quot;color: rgb(125, 134, 140); font-family: Helvetica; font-size: 14px; font-style: normal; font-variant-ligatures: normal; font-variant-caps: normal; font-weight: 400; letter-spacing: normal; orphans: 2; text-align: left; text-indent: 0px; text-transform: none; widows: 2; word-spacing: 0px; -webkit-text-stroke-width: 0px; background-color: rgb(255, 255, 255); text-decoration-thickness: initial; text-decoration-style: initial; text-decoration-color: initial; float: none; display: inline !important;&quot;&gt;DirecciÃ³n de correo electrÃ³nico&lt;/span&gt;" style="text;whiteSpace=wrap;html=1;fontSize=16;" parent="1" vertex="1">
          <mxGeometry x="-403" y="1505" width="209" height="41" as="geometry" />
        </mxCell>
        <mxCell id="88yHHtkOrPNAxC5C-WaW-12" value="" style="html=1;shadow=0;dashed=0;shape=mxgraph.bootstrap.rrect;rSize=5;strokeColor=#CED4DA;html=1;whiteSpace=wrap;fillColor=#FFFFFF;fontColor=#7D868C;align=left;spacingLeft=0;spacing=15;fontSize=14;" parent="1" vertex="1">
          <mxGeometry x="-404" y="1535" width="297" height="30" as="geometry" />
        </mxCell>
        <mxCell id="88yHHtkOrPNAxC5C-WaW-13" value="&lt;span style=&quot;color: rgb(125, 134, 140); font-family: Helvetica; font-size: 14px; font-style: normal; font-variant-ligatures: normal; font-variant-caps: normal; font-weight: 400; letter-spacing: normal; orphans: 2; text-align: left; text-indent: 0px; text-transform: none; widows: 2; word-spacing: 0px; -webkit-text-stroke-width: 0px; background-color: rgb(255, 255, 255); text-decoration-thickness: initial; text-decoration-style: initial; text-decoration-color: initial; float: none; display: inline !important;&quot;&gt;ContraseÃ±a&lt;/span&gt;" style="text;whiteSpace=wrap;html=1;fontSize=16;" parent="1" vertex="1">
          <mxGeometry x="-403" y="1578" width="209" height="41" as="geometry" />
        </mxCell>
        <mxCell id="88yHHtkOrPNAxC5C-WaW-14" value="" style="html=1;shadow=0;dashed=0;shape=mxgraph.bootstrap.rrect;rSize=5;strokeColor=#CED4DA;html=1;whiteSpace=wrap;fillColor=#FFFFFF;fontColor=#7D868C;align=left;spacingLeft=0;spacing=15;fontSize=14;" parent="1" vertex="1">
          <mxGeometry x="-403" y="1615" width="297" height="30" as="geometry" />
        </mxCell>
        <mxCell id="88yHHtkOrPNAxC5C-WaW-15" value="" style="whiteSpace=wrap;html=1;aspect=fixed;fontSize=16;" parent="1" vertex="1">
          <mxGeometry x="-403" y="1656" width="21" height="21" as="geometry" />
        </mxCell>
        <mxCell id="88yHHtkOrPNAxC5C-WaW-16" value="AcuÃ©rdate de mÃ­" style="fillColor=none;strokeColor=none;fontSize=14;fontColor=#7D868C;align=left;spacing=10;" parent="1" vertex="1">
          <mxGeometry x="-2" y="-1385.5" width="124" height="30" as="geometry" />
        </mxCell>
        <mxCell id="88yHHtkOrPNAxC5C-WaW-17" value="Acceder" style="html=1;shadow=0;dashed=0;shape=mxgraph.bootstrap.rrect;rSize=5;strokeColor=none;strokeWidth=1;fillColor=#33A64C;fontColor=#FFFFFF;whiteSpace=wrap;align=center;verticalAlign=middle;spacingLeft=0;fontStyle=0;fontSize=16;spacing=5;" parent="1" vertex="1">
          <mxGeometry x="-40" y="-1340" width="90" height="40" as="geometry" />
        </mxCell>
        <mxCell id="88yHHtkOrPNAxC5C-WaW-19" value="&lt;span style=&quot;color: rgb(125, 134, 140); font-family: Helvetica; font-size: 14px; font-style: normal; font-variant-ligatures: normal; font-variant-caps: normal; font-weight: 400; letter-spacing: normal; orphans: 2; text-align: left; text-indent: 0px; text-transform: none; widows: 2; word-spacing: 0px; -webkit-text-stroke-width: 0px; background-color: rgb(255, 255, 255); text-decoration-thickness: initial; text-decoration-style: initial; text-decoration-color: initial; float: none; display: inline !important;&quot;&gt;DirecciÃ³n de correo electrÃ³nico&lt;/span&gt;" style="text;whiteSpace=wrap;html=1;fontSize=16;" parent="1" vertex="1">
          <mxGeometry x="-43" y="-1532" width="209" height="41" as="geometry" />
        </mxCell>
        <mxCell id="88yHHtkOrPNAxC5C-WaW-20" value="" style="html=1;shadow=0;dashed=0;shape=mxgraph.bootstrap.rrect;rSize=5;strokeColor=#CED4DA;html=1;whiteSpace=wrap;fillColor=#FFFFFF;fontColor=#7D868C;align=left;spacingLeft=0;spacing=15;fontSize=14;" parent="1" vertex="1">
          <mxGeometry x="-44" y="-1502" width="297" height="30" as="geometry" />
        </mxCell>
        <mxCell id="88yHHtkOrPNAxC5C-WaW-21" value="&lt;span style=&quot;color: rgb(125, 134, 140); font-family: Helvetica; font-size: 14px; font-style: normal; font-variant-ligatures: normal; font-variant-caps: normal; font-weight: 400; letter-spacing: normal; orphans: 2; text-align: left; text-indent: 0px; text-transform: none; widows: 2; word-spacing: 0px; -webkit-text-stroke-width: 0px; background-color: rgb(255, 255, 255); text-decoration-thickness: initial; text-decoration-style: initial; text-decoration-color: initial; float: none; display: inline !important;&quot;&gt;ContraseÃ±a&lt;/span&gt;" style="text;whiteSpace=wrap;html=1;fontSize=16;" parent="1" vertex="1">
          <mxGeometry x="-43" y="-1459" width="209" height="41" as="geometry" />
        </mxCell>
        <mxCell id="88yHHtkOrPNAxC5C-WaW-22" value="" style="html=1;shadow=0;dashed=0;shape=mxgraph.bootstrap.rrect;rSize=5;strokeColor=#CED4DA;html=1;whiteSpace=wrap;fillColor=#FFFFFF;fontColor=#7D868C;align=left;spacingLeft=0;spacing=15;fontSize=14;" parent="1" vertex="1">
          <mxGeometry x="-43" y="-1422" width="297" height="30" as="geometry" />
        </mxCell>
        <mxCell id="88yHHtkOrPNAxC5C-WaW-23" value="" style="whiteSpace=wrap;html=1;aspect=fixed;fontSize=16;" parent="1" vertex="1">
          <mxGeometry x="-43" y="-1381" width="21" height="21" as="geometry" />
        </mxCell>
        <mxCell id="88yHHtkOrPNAxC5C-WaW-24" value="" style="rounded=0;whiteSpace=wrap;html=1;fillColor=#e1d5e7;strokeColor=#9673a6;" parent="1" vertex="1">
          <mxGeometry x="851" y="-1909" width="1484" height="923" as="geometry" />
        </mxCell>
        <mxCell id="88yHHtkOrPNAxC5C-WaW-25" value="" style="rounded=0;whiteSpace=wrap;html=1;fillColor=#f5f5f5;fontColor=#333333;strokeColor=#666666;" parent="1" vertex="1">
          <mxGeometry x="852" y="-1909" width="1486" height="104" as="geometry" />
        </mxCell>
        <mxCell id="88yHHtkOrPNAxC5C-WaW-27" value="Productos" style="text;html=1;strokeColor=none;fillColor=none;align=center;verticalAlign=middle;whiteSpace=wrap;rounded=0;fontSize=30;" parent="1" vertex="1">
          <mxGeometry x="1026" y="-1747" width="60" height="30" as="geometry" />
        </mxCell>
        <mxCell id="88yHHtkOrPNAxC5C-WaW-32" value="&lt;b&gt;&lt;font style=&quot;font-size: 20px&quot;&gt;&lt;br&gt;&lt;br&gt;&lt;br&gt;&lt;br&gt;&lt;br&gt;&lt;br&gt;&lt;br&gt;&lt;br&gt;&lt;/font&gt;&lt;/b&gt;Producto: Nombre del producto&lt;br&gt;&lt;br&gt;DescripciÃ³n del producto&lt;br&gt;&lt;br&gt;Precio:&amp;nbsp;" style="html=1;shadow=0;dashed=0;shape=mxgraph.bootstrap.rrect;rSize=5;strokeColor=#DFDFDF;html=1;whiteSpace=wrap;fillColor=#ffffff;fontColor=#000000;verticalAlign=top;align=left;spacing=20;spacingBottom=0;fontSize=14;spacingTop=160;" parent="1" vertex="1">
          <mxGeometry x="977" y="-1677" width="370" height="572" as="geometry" />
        </mxCell>
        <mxCell id="88yHHtkOrPNAxC5C-WaW-33" value="Imagen del producto" style="html=1;shadow=0;dashed=0;shape=mxgraph.bootstrap.topButton;rSize=5;perimeter=none;whiteSpace=wrap;fillColor=#868E96;strokeColor=#DFDFDF;fontColor=#DEE2E6;resizeWidth=1;fontSize=18;" parent="88yHHtkOrPNAxC5C-WaW-32" vertex="1">
          <mxGeometry width="370" height="364" relative="1" as="geometry">
            <mxPoint x="3" y="-3" as="offset" />
          </mxGeometry>
        </mxCell>
        <mxCell id="88yHHtkOrPNAxC5C-WaW-34" value="Agregar al carrito" style="html=1;shadow=0;dashed=0;shape=mxgraph.bootstrap.rrect;rSize=5;strokeColor=#9673a6;strokeWidth=1;fillColor=#e1d5e7;whiteSpace=wrap;align=center;verticalAlign=middle;spacingLeft=0;fontStyle=0;fontSize=16;spacing=5;" parent="88yHHtkOrPNAxC5C-WaW-32" vertex="1">
          <mxGeometry x="23" y="489" width="132" height="62.51" as="geometry" />
        </mxCell>
        <mxCell id="88yHHtkOrPNAxC5C-WaW-36" value="&lt;font style=&quot;font-size: 20px;&quot;&gt;Productos&lt;/font&gt;" style="text;html=1;strokeColor=none;fillColor=none;align=center;verticalAlign=middle;whiteSpace=wrap;rounded=0;" parent="1" vertex="1">
          <mxGeometry x="1068" y="-1869" width="140" height="30" as="geometry" />
        </mxCell>
        <mxCell id="88yHHtkOrPNAxC5C-WaW-37" value="&lt;font style=&quot;font-size: 20px;&quot;&gt;Card&lt;/font&gt;" style="text;html=1;strokeColor=none;fillColor=none;align=center;verticalAlign=middle;whiteSpace=wrap;rounded=0;" parent="1" vertex="1">
          <mxGeometry x="1237" y="-1872" width="60" height="30" as="geometry" />
        </mxCell>
        <mxCell id="88yHHtkOrPNAxC5C-WaW-38" value="&lt;font style=&quot;font-size: 20px;&quot;&gt;Laravel&lt;/font&gt;" style="text;html=1;strokeColor=none;fillColor=none;align=center;verticalAlign=middle;whiteSpace=wrap;rounded=0;" parent="1" vertex="1">
          <mxGeometry x="-464.5" y="-1869" width="60" height="30" as="geometry" />
        </mxCell>
        <mxCell id="88yHHtkOrPNAxC5C-WaW-39" value="&lt;b&gt;&lt;font style=&quot;font-size: 20px&quot;&gt;&lt;br&gt;&lt;br&gt;&lt;br&gt;&lt;br&gt;&lt;br&gt;&lt;br&gt;&lt;br&gt;&lt;br&gt;&lt;/font&gt;&lt;/b&gt;Producto: Nombre del producto&lt;br&gt;&lt;br&gt;DescripciÃ³n del producto&lt;br&gt;&lt;br&gt;Precio:&amp;nbsp;" style="html=1;shadow=0;dashed=0;shape=mxgraph.bootstrap.rrect;rSize=5;strokeColor=#DFDFDF;html=1;whiteSpace=wrap;fillColor=#ffffff;fontColor=#000000;verticalAlign=top;align=left;spacing=20;spacingBottom=0;fontSize=14;spacingTop=160;" parent="1" vertex="1">
          <mxGeometry x="1839" y="-1683" width="370" height="572" as="geometry" />
        </mxCell>
        <mxCell id="88yHHtkOrPNAxC5C-WaW-40" value="Imagen del producto" style="html=1;shadow=0;dashed=0;shape=mxgraph.bootstrap.topButton;rSize=5;perimeter=none;whiteSpace=wrap;fillColor=#868E96;strokeColor=#DFDFDF;fontColor=#DEE2E6;resizeWidth=1;fontSize=18;" parent="88yHHtkOrPNAxC5C-WaW-39" vertex="1">
          <mxGeometry width="370" height="364" relative="1" as="geometry">
            <mxPoint x="3" y="-3" as="offset" />
          </mxGeometry>
        </mxCell>
        <mxCell id="88yHHtkOrPNAxC5C-WaW-41" value="Agregar al carrito" style="html=1;shadow=0;dashed=0;shape=mxgraph.bootstrap.rrect;rSize=5;strokeColor=#9673a6;strokeWidth=1;fillColor=#e1d5e7;whiteSpace=wrap;align=center;verticalAlign=middle;spacingLeft=0;fontStyle=0;fontSize=16;spacing=5;" parent="88yHHtkOrPNAxC5C-WaW-39" vertex="1">
          <mxGeometry x="23" y="489" width="132" height="62.51" as="geometry" />
        </mxCell>
        <mxCell id="88yHHtkOrPNAxC5C-WaW-42" value="&lt;b&gt;&lt;font style=&quot;font-size: 20px&quot;&gt;&lt;br&gt;&lt;br&gt;&lt;br&gt;&lt;br&gt;&lt;br&gt;&lt;br&gt;&lt;br&gt;&lt;br&gt;&lt;/font&gt;&lt;/b&gt;Producto: Nombre del producto&lt;br&gt;&lt;br&gt;DescripciÃ³n del producto&lt;br&gt;&lt;br&gt;Precio:&amp;nbsp;" style="html=1;shadow=0;dashed=0;shape=mxgraph.bootstrap.rrect;rSize=5;strokeColor=#DFDFDF;html=1;whiteSpace=wrap;fillColor=#ffffff;fontColor=#000000;verticalAlign=top;align=left;spacing=20;spacingBottom=0;fontSize=14;spacingTop=160;" parent="1" vertex="1">
          <mxGeometry x="1405" y="-1679" width="370" height="572" as="geometry" />
        </mxCell>
        <mxCell id="88yHHtkOrPNAxC5C-WaW-43" value="Imagen del producto" style="html=1;shadow=0;dashed=0;shape=mxgraph.bootstrap.topButton;rSize=5;perimeter=none;whiteSpace=wrap;fillColor=#868E96;strokeColor=#DFDFDF;fontColor=#DEE2E6;resizeWidth=1;fontSize=18;" parent="88yHHtkOrPNAxC5C-WaW-42" vertex="1">
          <mxGeometry width="370" height="364" relative="1" as="geometry">
            <mxPoint x="3" y="-3" as="offset" />
          </mxGeometry>
        </mxCell>
        <mxCell id="88yHHtkOrPNAxC5C-WaW-44" value="Agregar al carrito" style="html=1;shadow=0;dashed=0;shape=mxgraph.bootstrap.rrect;rSize=5;strokeColor=#9673a6;strokeWidth=1;fillColor=#e1d5e7;whiteSpace=wrap;align=center;verticalAlign=middle;spacingLeft=0;fontStyle=0;fontSize=16;spacing=5;" parent="88yHHtkOrPNAxC5C-WaW-42" vertex="1">
          <mxGeometry x="23" y="489" width="132" height="62.51" as="geometry" />
        </mxCell>
        <mxCell id="88yHHtkOrPNAxC5C-WaW-46" value="" style="rounded=0;whiteSpace=wrap;html=1;fillColor=#e1d5e7;strokeColor=#9673a6;" parent="1" vertex="1">
          <mxGeometry x="855" y="-2895" width="1484" height="798" as="geometry" />
        </mxCell>
        <mxCell id="88yHHtkOrPNAxC5C-WaW-47" value="" style="rounded=0;whiteSpace=wrap;html=1;fillColor=#f5f5f5;fontColor=#333333;strokeColor=#666666;" parent="1" vertex="1">
          <mxGeometry x="856" y="-2895" width="1486" height="104" as="geometry" />
        </mxCell>
        <mxCell id="88yHHtkOrPNAxC5C-WaW-54" value="" style="rounded=0;whiteSpace=wrap;html=1;fillColor=#f5f5f5;fontColor=#333333;strokeColor=#666666;" parent="1" vertex="1">
          <mxGeometry x="1251" y="-2700" width="736" height="398" as="geometry" />
        </mxCell>
        <mxCell id="88yHHtkOrPNAxC5C-WaW-55" value="" style="rounded=0;whiteSpace=wrap;html=1;fillColor=#f5f5f5;fontColor=#333333;strokeColor=#666666;" parent="1" vertex="1">
          <mxGeometry x="1252" y="-2698" width="734" height="60" as="geometry" />
        </mxCell>
        <mxCell id="88yHHtkOrPNAxC5C-WaW-56" value="Login" style="text;html=1;strokeColor=none;fillColor=none;align=center;verticalAlign=middle;whiteSpace=wrap;rounded=0;fontSize=18;" parent="1" vertex="1">
          <mxGeometry x="1276" y="-2679" width="60" height="30" as="geometry" />
        </mxCell>
        <mxCell id="88yHHtkOrPNAxC5C-WaW-58" value="Login" style="html=1;shadow=0;dashed=0;shape=mxgraph.bootstrap.rrect;rSize=5;strokeColor=#9673a6;strokeWidth=1;fillColor=#e1d5e7;whiteSpace=wrap;align=center;verticalAlign=middle;spacingLeft=0;fontStyle=0;fontSize=16;spacing=5;" parent="1" vertex="1">
          <mxGeometry x="1416" y="-2405" width="90" height="40" as="geometry" />
        </mxCell>
        <mxCell id="88yHHtkOrPNAxC5C-WaW-60" value="" style="html=1;shadow=0;dashed=0;shape=mxgraph.bootstrap.rrect;rSize=5;strokeColor=#CED4DA;html=1;whiteSpace=wrap;fillColor=#FFFFFF;fontColor=#7D868C;align=left;spacingLeft=0;spacing=15;fontSize=14;" parent="1" vertex="1">
          <mxGeometry x="1437" y="-2609" width="297" height="30" as="geometry" />
        </mxCell>
        <mxCell id="88yHHtkOrPNAxC5C-WaW-62" value="" style="html=1;shadow=0;dashed=0;shape=mxgraph.bootstrap.rrect;rSize=5;strokeColor=#CED4DA;html=1;whiteSpace=wrap;fillColor=#FFFFFF;fontColor=#7D868C;align=left;spacingLeft=0;spacing=15;fontSize=14;" parent="1" vertex="1">
          <mxGeometry x="1437" y="-2536" width="297" height="30" as="geometry" />
        </mxCell>
        <mxCell id="88yHHtkOrPNAxC5C-WaW-63" value="" style="whiteSpace=wrap;html=1;aspect=fixed;fontSize=16;" parent="1" vertex="1">
          <mxGeometry x="1437" y="-2468" width="21" height="21" as="geometry" />
        </mxCell>
        <mxCell id="88yHHtkOrPNAxC5C-WaW-65" value="E-Mail Address" style="text;html=1;strokeColor=none;fillColor=none;align=center;verticalAlign=middle;whiteSpace=wrap;rounded=0;fontSize=18;" parent="1" vertex="1">
          <mxGeometry x="1280" y="-2609" width="132" height="30" as="geometry" />
        </mxCell>
        <mxCell id="88yHHtkOrPNAxC5C-WaW-66" value="Password" style="text;html=1;strokeColor=none;fillColor=none;align=center;verticalAlign=middle;whiteSpace=wrap;rounded=0;fontSize=18;" parent="1" vertex="1">
          <mxGeometry x="1293" y="-2526" width="60" height="30" as="geometry" />
        </mxCell>
        <mxCell id="88yHHtkOrPNAxC5C-WaW-67" value="Remenber Me" style="text;html=1;strokeColor=none;fillColor=none;align=center;verticalAlign=middle;whiteSpace=wrap;rounded=0;fontSize=18;" parent="1" vertex="1">
          <mxGeometry x="1506" y="-2470" width="135" height="30" as="geometry" />
        </mxCell>
        <mxCell id="88yHHtkOrPNAxC5C-WaW-70" value="Forgot Your Password?" style="html=1;shadow=0;dashed=0;shape=mxgraph.bootstrap.rrect;rSize=5;strokeColor=#9673a6;strokeWidth=1;fillColor=#e1d5e7;whiteSpace=wrap;align=center;verticalAlign=middle;spacingLeft=0;fontStyle=0;fontSize=16;spacing=5;" parent="1" vertex="1">
          <mxGeometry x="1552" y="-2405" width="189" height="40" as="geometry" />
        </mxCell>
        <mxCell id="88yHHtkOrPNAxC5C-WaW-71" value="" style="rounded=0;whiteSpace=wrap;html=1;fillColor=#e1d5e7;strokeColor=#9673a6;" parent="1" vertex="1">
          <mxGeometry x="835" y="-3810" width="1484" height="798" as="geometry" />
        </mxCell>
        <mxCell id="88yHHtkOrPNAxC5C-WaW-72" value="" style="rounded=0;whiteSpace=wrap;html=1;fillColor=#f5f5f5;fontColor=#333333;strokeColor=#666666;" parent="1" vertex="1">
          <mxGeometry x="836" y="-3810" width="1486" height="104" as="geometry" />
        </mxCell>
        <mxCell id="88yHHtkOrPNAxC5C-WaW-74" value="&lt;font style=&quot;font-size: 20px;&quot;&gt;Login&lt;/font&gt;" style="text;html=1;strokeColor=none;fillColor=none;align=center;verticalAlign=middle;whiteSpace=wrap;rounded=0;" parent="1" vertex="1">
          <mxGeometry x="1072" y="-3771" width="60" height="30" as="geometry" />
        </mxCell>
        <mxCell id="88yHHtkOrPNAxC5C-WaW-75" value="&lt;font style=&quot;font-size: 20px;&quot;&gt;Register&lt;/font&gt;" style="text;html=1;strokeColor=none;fillColor=none;align=center;verticalAlign=middle;whiteSpace=wrap;rounded=0;" parent="1" vertex="1">
          <mxGeometry x="1177" y="-3771" width="60" height="30" as="geometry" />
        </mxCell>
        <mxCell id="88yHHtkOrPNAxC5C-WaW-76" value="" style="rounded=0;whiteSpace=wrap;html=1;fillColor=#f5f5f5;fontColor=#333333;strokeColor=#666666;" parent="1" vertex="1">
          <mxGeometry x="1231" y="-3615" width="736" height="527" as="geometry" />
        </mxCell>
        <mxCell id="88yHHtkOrPNAxC5C-WaW-77" value="" style="rounded=0;whiteSpace=wrap;html=1;fillColor=#f5f5f5;fontColor=#333333;strokeColor=#666666;" parent="1" vertex="1">
          <mxGeometry x="1232" y="-3613" width="734" height="60" as="geometry" />
        </mxCell>
        <mxCell id="88yHHtkOrPNAxC5C-WaW-78" value="Register" style="text;html=1;strokeColor=none;fillColor=none;align=center;verticalAlign=middle;whiteSpace=wrap;rounded=0;fontSize=18;" parent="1" vertex="1">
          <mxGeometry x="1256" y="-3594" width="60" height="30" as="geometry" />
        </mxCell>
        <mxCell id="88yHHtkOrPNAxC5C-WaW-79" value="Register" style="html=1;shadow=0;dashed=0;shape=mxgraph.bootstrap.rrect;rSize=5;strokeColor=#9673a6;strokeWidth=1;fillColor=#e1d5e7;whiteSpace=wrap;align=center;verticalAlign=middle;spacingLeft=0;fontStyle=0;fontSize=16;spacing=5;" parent="1" vertex="1">
          <mxGeometry x="1389" y="-3164" width="90" height="40" as="geometry" />
        </mxCell>
        <mxCell id="88yHHtkOrPNAxC5C-WaW-80" value="" style="html=1;shadow=0;dashed=0;shape=mxgraph.bootstrap.rrect;rSize=5;strokeColor=#CED4DA;html=1;whiteSpace=wrap;fillColor=#FFFFFF;fontColor=#7D868C;align=left;spacingLeft=0;spacing=15;fontSize=14;" parent="1" vertex="1">
          <mxGeometry x="1479" y="-3520" width="297" height="30" as="geometry" />
        </mxCell>
        <mxCell id="88yHHtkOrPNAxC5C-WaW-81" value="" style="html=1;shadow=0;dashed=0;shape=mxgraph.bootstrap.rrect;rSize=5;strokeColor=#CED4DA;html=1;whiteSpace=wrap;fillColor=#FFFFFF;fontColor=#7D868C;align=left;spacingLeft=0;spacing=15;fontSize=14;" parent="1" vertex="1">
          <mxGeometry x="1474" y="-3441" width="297" height="30" as="geometry" />
        </mxCell>
        <mxCell id="88yHHtkOrPNAxC5C-WaW-83" value="Name" style="text;html=1;strokeColor=none;fillColor=none;align=center;verticalAlign=middle;whiteSpace=wrap;rounded=0;fontSize=18;" parent="1" vertex="1">
          <mxGeometry x="1237" y="-3524" width="132" height="30" as="geometry" />
        </mxCell>
        <mxCell id="88yHHtkOrPNAxC5C-WaW-84" value="E-Mail Address" style="text;html=1;strokeColor=none;fillColor=none;align=center;verticalAlign=middle;whiteSpace=wrap;rounded=0;fontSize=18;" parent="1" vertex="1">
          <mxGeometry x="1273" y="-3441" width="129" height="30" as="geometry" />
        </mxCell>
        <mxCell id="88yHHtkOrPNAxC5C-WaW-87" value="" style="edgeStyle=orthogonalEdgeStyle;rounded=0;orthogonalLoop=1;jettySize=auto;html=1;" parent="1" edge="1">
          <mxGeometry relative="1" as="geometry">
            <mxPoint x="1438" y="-3372.4" as="targetPoint" />
          </mxGeometry>
        </mxCell>
        <mxCell id="88yHHtkOrPNAxC5C-WaW-91" value="" style="html=1;shadow=0;dashed=0;shape=mxgraph.bootstrap.rrect;rSize=5;strokeColor=#CED4DA;html=1;whiteSpace=wrap;fillColor=#FFFFFF;fontColor=#7D868C;align=left;spacingLeft=0;spacing=15;fontSize=14;" parent="1" vertex="1">
          <mxGeometry x="1470.5" y="-3369" width="297" height="30" as="geometry" />
        </mxCell>
        <mxCell id="88yHHtkOrPNAxC5C-WaW-93" value="Confirm Password" style="text;html=1;strokeColor=none;fillColor=none;align=center;verticalAlign=middle;whiteSpace=wrap;rounded=0;fontSize=18;" parent="1" vertex="1">
          <mxGeometry x="1269" y="-3279" width="162" height="30" as="geometry" />
        </mxCell>
        <mxCell id="88yHHtkOrPNAxC5C-WaW-94" value="" style="html=1;shadow=0;dashed=0;shape=mxgraph.bootstrap.rrect;rSize=5;strokeColor=#CED4DA;html=1;whiteSpace=wrap;fillColor=#FFFFFF;fontColor=#7D868C;align=left;spacingLeft=0;spacing=15;fontSize=14;" parent="1" vertex="1">
          <mxGeometry x="1467" y="-3279" width="297" height="30" as="geometry" />
        </mxCell>
        <mxCell id="88yHHtkOrPNAxC5C-WaW-96" value="Password" style="text;html=1;strokeColor=none;fillColor=none;align=center;verticalAlign=middle;whiteSpace=wrap;rounded=0;fontSize=18;" parent="1" vertex="1">
          <mxGeometry x="1276" y="-3360" width="60" height="30" as="geometry" />
        </mxCell>
        <mxCell id="88yHHtkOrPNAxC5C-WaW-97" value="" style="rounded=0;whiteSpace=wrap;html=1;fillColor=#e1d5e7;strokeColor=#9673a6;" parent="1" vertex="1">
          <mxGeometry x="-732.5" y="-3841" width="1484" height="651" as="geometry" />
        </mxCell>
        <mxCell id="88yHHtkOrPNAxC5C-WaW-98" value="" style="rounded=0;whiteSpace=wrap;html=1;fillColor=#f5f5f5;fontColor=#333333;strokeColor=#666666;" parent="1" vertex="1">
          <mxGeometry x="-731.5" y="-3841" width="1486" height="104" as="geometry" />
        </mxCell>
        <mxCell id="88yHHtkOrPNAxC5C-WaW-102" value="" style="rounded=0;whiteSpace=wrap;html=1;fillColor=#f5f5f5;fontColor=#333333;strokeColor=#666666;" parent="1" vertex="1">
          <mxGeometry x="-336.5" y="-3646" width="736" height="376" as="geometry" />
        </mxCell>
        <mxCell id="88yHHtkOrPNAxC5C-WaW-103" value="" style="rounded=0;whiteSpace=wrap;html=1;fillColor=#f5f5f5;fontColor=#333333;strokeColor=#666666;" parent="1" vertex="1">
          <mxGeometry x="-335.5" y="-3644" width="734" height="60" as="geometry" />
        </mxCell>
        <mxCell id="88yHHtkOrPNAxC5C-WaW-104" value="Reset password" style="text;html=1;strokeColor=none;fillColor=none;align=center;verticalAlign=middle;whiteSpace=wrap;rounded=0;fontSize=18;" parent="1" vertex="1">
          <mxGeometry x="-311.5" y="-3625" width="140.5" height="30" as="geometry" />
        </mxCell>
        <mxCell id="88yHHtkOrPNAxC5C-WaW-106" value="" style="html=1;shadow=0;dashed=0;shape=mxgraph.bootstrap.rrect;rSize=5;strokeColor=#CED4DA;html=1;whiteSpace=wrap;fillColor=#FFFFFF;fontColor=#7D868C;align=left;spacingLeft=0;spacing=15;fontSize=14;" parent="1" vertex="1">
          <mxGeometry x="-307.5" y="-3485" width="297" height="30" as="geometry" />
        </mxCell>
        <mxCell id="88yHHtkOrPNAxC5C-WaW-109" value="E-Mail Address" style="text;html=1;strokeColor=none;fillColor=none;align=center;verticalAlign=middle;whiteSpace=wrap;rounded=0;fontSize=18;" parent="1" vertex="1">
          <mxGeometry x="-307.5" y="-3555" width="132" height="30" as="geometry" />
        </mxCell>
        <mxCell id="88yHHtkOrPNAxC5C-WaW-112" value="Send Email" style="html=1;shadow=0;dashed=0;shape=mxgraph.bootstrap.rrect;rSize=5;strokeColor=#9673a6;strokeWidth=1;fillColor=#e1d5e7;whiteSpace=wrap;align=center;verticalAlign=middle;spacingLeft=0;fontStyle=0;fontSize=16;spacing=5;" parent="1" vertex="1">
          <mxGeometry x="-317" y="-3415" width="189" height="40" as="geometry" />
        </mxCell>
        <mxCell id="88yHHtkOrPNAxC5C-WaW-113" value="&lt;font style=&quot;font-size: 21px;&quot;&gt;forgot-password&lt;/font&gt;" style="text;html=1;strokeColor=none;fillColor=none;align=center;verticalAlign=middle;whiteSpace=wrap;rounded=0;fontSize=18;" parent="1" vertex="1">
          <mxGeometry x="-669" y="-3935" width="142" height="30" as="geometry" />
        </mxCell>
        <mxCell id="88yHHtkOrPNAxC5C-WaW-114" value="" style="rounded=0;whiteSpace=wrap;html=1;fillColor=#e1d5e7;strokeColor=#9673a6;" parent="1" vertex="1">
          <mxGeometry x="-791" y="-4709" width="1484" height="651" as="geometry" />
        </mxCell>
        <mxCell id="88yHHtkOrPNAxC5C-WaW-115" value="" style="rounded=0;whiteSpace=wrap;html=1;fillColor=#f5f5f5;fontColor=#333333;strokeColor=#666666;" parent="1" vertex="1">
          <mxGeometry x="-790" y="-4709" width="1486" height="104" as="geometry" />
        </mxCell>
        <mxCell id="88yHHtkOrPNAxC5C-WaW-117" value="" style="rounded=0;whiteSpace=wrap;html=1;fillColor=#f5f5f5;fontColor=#333333;strokeColor=#666666;" parent="1" vertex="1">
          <mxGeometry x="-395" y="-4514" width="736" height="376" as="geometry" />
        </mxCell>
        <mxCell id="88yHHtkOrPNAxC5C-WaW-118" value="" style="rounded=0;whiteSpace=wrap;html=1;fillColor=#f5f5f5;fontColor=#333333;strokeColor=#666666;" parent="1" vertex="1">
          <mxGeometry x="-394" y="-4512" width="734" height="60" as="geometry" />
        </mxCell>
        <mxCell id="88yHHtkOrPNAxC5C-WaW-119" value="Email Verification" style="text;html=1;strokeColor=none;fillColor=none;align=center;verticalAlign=middle;whiteSpace=wrap;rounded=0;fontSize=18;" parent="1" vertex="1">
          <mxGeometry x="-370" y="-4493" width="140.5" height="30" as="geometry" />
        </mxCell>
        <mxCell id="88yHHtkOrPNAxC5C-WaW-121" value="Mensaje" style="text;html=1;strokeColor=none;fillColor=none;align=center;verticalAlign=middle;whiteSpace=wrap;rounded=0;fontSize=18;" parent="1" vertex="1">
          <mxGeometry x="-382" y="-4423" width="132" height="30" as="geometry" />
        </mxCell>
        <mxCell id="88yHHtkOrPNAxC5C-WaW-122" value="Resend Email" style="html=1;shadow=0;dashed=0;shape=mxgraph.bootstrap.rrect;rSize=5;strokeColor=#9673a6;strokeWidth=1;fillColor=#e1d5e7;whiteSpace=wrap;align=center;verticalAlign=middle;spacingLeft=0;fontStyle=0;fontSize=16;spacing=5;" parent="1" vertex="1">
          <mxGeometry x="-356" y="-4354" width="189" height="40" as="geometry" />
        </mxCell>
        <mxCell id="88yHHtkOrPNAxC5C-WaW-123" value="&lt;font style=&quot;font-size: 19px;&quot;&gt;verificar email&lt;/font&gt;" style="text;html=1;strokeColor=none;fillColor=none;align=center;verticalAlign=middle;whiteSpace=wrap;rounded=0;fontSize=18;" parent="1" vertex="1">
          <mxGeometry x="-727.5" y="-4803" width="142" height="30" as="geometry" />
        </mxCell>
        <mxCell id="88yHHtkOrPNAxC5C-WaW-134" value="" style="rounded=0;whiteSpace=wrap;html=1;fillColor=#e1d5e7;strokeColor=#9673a6;" parent="1" vertex="1">
          <mxGeometry x="-792.5" y="-5528" width="1484" height="460" as="geometry" />
        </mxCell>
        <mxCell id="88yHHtkOrPNAxC5C-WaW-135" value="" style="rounded=0;whiteSpace=wrap;html=1;fillColor=#f5f5f5;fontColor=#333333;strokeColor=#666666;" parent="1" vertex="1">
          <mxGeometry x="-791.5" y="-5528" width="1486" height="104" as="geometry" />
        </mxCell>
        <mxCell id="88yHHtkOrPNAxC5C-WaW-137" value="" style="rounded=0;whiteSpace=wrap;html=1;fillColor=#f5f5f5;fontColor=#333333;strokeColor=#666666;" parent="1" vertex="1">
          <mxGeometry x="-396.5" y="-5333" width="736" height="165" as="geometry" />
        </mxCell>
        <mxCell id="88yHHtkOrPNAxC5C-WaW-138" value="" style="rounded=0;whiteSpace=wrap;html=1;fillColor=#f5f5f5;fontColor=#333333;strokeColor=#666666;" parent="1" vertex="1">
          <mxGeometry x="-395.5" y="-5331" width="734" height="60" as="geometry" />
        </mxCell>
        <mxCell id="88yHHtkOrPNAxC5C-WaW-139" value="Dashboard" style="text;html=1;strokeColor=none;fillColor=none;align=center;verticalAlign=middle;whiteSpace=wrap;rounded=0;fontSize=18;" parent="1" vertex="1">
          <mxGeometry x="-371.5" y="-5312" width="140.5" height="30" as="geometry" />
        </mxCell>
        <mxCell id="88yHHtkOrPNAxC5C-WaW-140" value="You are logged in!" style="text;html=1;strokeColor=none;fillColor=none;align=center;verticalAlign=middle;whiteSpace=wrap;rounded=0;fontSize=18;" parent="1" vertex="1">
          <mxGeometry x="-383.5" y="-5242" width="165.5" height="30" as="geometry" />
        </mxCell>
        <mxCell id="88yHHtkOrPNAxC5C-WaW-142" value="&lt;font style=&quot;font-size: 19px;&quot;&gt;dashboard&lt;/font&gt;" style="text;html=1;strokeColor=none;fillColor=none;align=center;verticalAlign=middle;whiteSpace=wrap;rounded=0;fontSize=18;" parent="1" vertex="1">
          <mxGeometry x="-729" y="-5622" width="142" height="30" as="geometry" />
        </mxCell>
        <mxCell id="88yHHtkOrPNAxC5C-WaW-143" value="&lt;span style=&quot;color: rgb(0, 0, 0); font-family: Helvetica; font-size: 20px; font-style: normal; font-variant-ligatures: normal; font-variant-caps: normal; font-weight: 400; letter-spacing: normal; orphans: 2; text-align: center; text-indent: 0px; text-transform: none; widows: 2; word-spacing: 0px; -webkit-text-stroke-width: 0px; background-color: rgb(255, 255, 255); text-decoration-thickness: initial; text-decoration-style: initial; text-decoration-color: initial; float: none; display: inline !important;&quot;&gt;UPOCOSMETIC&lt;/span&gt;" style="text;whiteSpace=wrap;html=1;" parent="1" vertex="1">
          <mxGeometry x="889" y="-3775" width="157" height="46" as="geometry" />
        </mxCell>
        <mxCell id="88yHHtkOrPNAxC5C-WaW-145" value="&lt;font style=&quot;font-size: 20px;&quot;&gt;Login&lt;/font&gt;" style="text;html=1;strokeColor=none;fillColor=none;align=center;verticalAlign=middle;whiteSpace=wrap;rounded=0;" parent="1" vertex="1">
          <mxGeometry x="1086" y="-2855" width="60" height="30" as="geometry" />
        </mxCell>
        <mxCell id="88yHHtkOrPNAxC5C-WaW-146" value="&lt;font style=&quot;font-size: 20px;&quot;&gt;Register&lt;/font&gt;" style="text;html=1;strokeColor=none;fillColor=none;align=center;verticalAlign=middle;whiteSpace=wrap;rounded=0;" parent="1" vertex="1">
          <mxGeometry x="1191" y="-2855" width="60" height="30" as="geometry" />
        </mxCell>
        <mxCell id="88yHHtkOrPNAxC5C-WaW-147" value="&lt;span style=&quot;color: rgb(0, 0, 0); font-family: Helvetica; font-size: 20px; font-style: normal; font-variant-ligatures: normal; font-variant-caps: normal; font-weight: 400; letter-spacing: normal; orphans: 2; text-align: center; text-indent: 0px; text-transform: none; widows: 2; word-spacing: 0px; -webkit-text-stroke-width: 0px; background-color: rgb(255, 255, 255); text-decoration-thickness: initial; text-decoration-style: initial; text-decoration-color: initial; float: none; display: inline !important;&quot;&gt;UPOCOSMETIC&lt;/span&gt;" style="text;whiteSpace=wrap;html=1;" parent="1" vertex="1">
          <mxGeometry x="903" y="-2859" width="157" height="46" as="geometry" />
        </mxCell>
        <mxCell id="88yHHtkOrPNAxC5C-WaW-148" value="&lt;span style=&quot;color: rgb(0, 0, 0); font-family: Helvetica; font-size: 20px; font-style: normal; font-variant-ligatures: normal; font-variant-caps: normal; font-weight: 400; letter-spacing: normal; orphans: 2; text-align: center; text-indent: 0px; text-transform: none; widows: 2; word-spacing: 0px; -webkit-text-stroke-width: 0px; background-color: rgb(255, 255, 255); text-decoration-thickness: initial; text-decoration-style: initial; text-decoration-color: initial; float: none; display: inline !important;&quot;&gt;UPOCOSMETIC&lt;/span&gt;" style="text;whiteSpace=wrap;html=1;" parent="1" vertex="1">
          <mxGeometry x="-669" y="-3812" width="157" height="46" as="geometry" />
        </mxCell>
        <mxCell id="88yHHtkOrPNAxC5C-WaW-149" value="&lt;span style=&quot;color: rgb(0, 0, 0); font-family: Helvetica; font-size: 20px; font-style: normal; font-variant-ligatures: normal; font-variant-caps: normal; font-weight: 400; letter-spacing: normal; orphans: 2; text-align: center; text-indent: 0px; text-transform: none; widows: 2; word-spacing: 0px; -webkit-text-stroke-width: 0px; background-color: rgb(255, 255, 255); text-decoration-thickness: initial; text-decoration-style: initial; text-decoration-color: initial; float: none; display: inline !important;&quot;&gt;UPOCOSMETIC&lt;/span&gt;" style="text;whiteSpace=wrap;html=1;" parent="1" vertex="1">
          <mxGeometry x="-721" y="-5489" width="157" height="46" as="geometry" />
        </mxCell>
        <mxCell id="88yHHtkOrPNAxC5C-WaW-150" value="&lt;span style=&quot;color: rgb(0, 0, 0); font-family: Helvetica; font-size: 20px; font-style: normal; font-variant-ligatures: normal; font-variant-caps: normal; font-weight: 400; letter-spacing: normal; orphans: 2; text-align: center; text-indent: 0px; text-transform: none; widows: 2; word-spacing: 0px; -webkit-text-stroke-width: 0px; background-color: rgb(255, 255, 255); text-decoration-thickness: initial; text-decoration-style: initial; text-decoration-color: initial; float: none; display: inline !important;&quot;&gt;UPOCOSMETIC&lt;/span&gt;" style="text;whiteSpace=wrap;html=1;" parent="1" vertex="1">
          <mxGeometry x="-713" y="-4669" width="157" height="46" as="geometry" />
        </mxCell>
        <mxCell id="88yHHtkOrPNAxC5C-WaW-153" value="Usuario" style="html=1;shadow=0;dashed=0;shape=mxgraph.bootstrap.rrect;rSize=5;strokeColor=#314354;strokeWidth=1;fillColor=#647687;whiteSpace=wrap;align=center;verticalAlign=middle;spacingLeft=0;fontStyle=0;fontSize=16;spacing=5;fontColor=#ffffff;" parent="1" vertex="1">
          <mxGeometry x="1326" y="-1888.26" width="132" height="62.51" as="geometry" />
        </mxCell>
        <mxCell id="88yHHtkOrPNAxC5C-WaW-154" value="&lt;span style=&quot;color: rgb(0, 0, 0); font-family: Helvetica; font-size: 20px; font-style: normal; font-variant-ligatures: normal; font-variant-caps: normal; font-weight: 400; letter-spacing: normal; orphans: 2; text-align: center; text-indent: 0px; text-transform: none; widows: 2; word-spacing: 0px; -webkit-text-stroke-width: 0px; background-color: rgb(255, 255, 255); text-decoration-thickness: initial; text-decoration-style: initial; text-decoration-color: initial; float: none; display: inline !important;&quot;&gt;UPOCOSMETIC&lt;/span&gt;" style="text;whiteSpace=wrap;html=1;" parent="1" vertex="1">
          <mxGeometry x="897" y="-1877" width="157" height="46" as="geometry" />
        </mxCell>
        <mxCell id="88yHHtkOrPNAxC5C-WaW-155" value="" style="rounded=0;whiteSpace=wrap;html=1;fillColor=#e1d5e7;strokeColor=#9673a6;" parent="1" vertex="1">
          <mxGeometry x="859" y="-815" width="1484" height="1216" as="geometry" />
        </mxCell>
        <mxCell id="88yHHtkOrPNAxC5C-WaW-156" value="" style="rounded=0;whiteSpace=wrap;html=1;fillColor=#f5f5f5;fontColor=#333333;strokeColor=#666666;" parent="1" vertex="1">
          <mxGeometry x="860" y="-815" width="1486" height="104" as="geometry" />
        </mxCell>
        <mxCell id="88yHHtkOrPNAxC5C-WaW-157" value="Checkout" style="text;html=1;strokeColor=none;fillColor=none;align=center;verticalAlign=middle;whiteSpace=wrap;rounded=0;fontSize=30;" parent="1" vertex="1">
          <mxGeometry x="1034" y="-653" width="60" height="30" as="geometry" />
        </mxCell>
        <mxCell id="88yHHtkOrPNAxC5C-WaW-161" value="&lt;font style=&quot;font-size: 20px;&quot;&gt;Productos&lt;/font&gt;" style="text;html=1;strokeColor=none;fillColor=none;align=center;verticalAlign=middle;whiteSpace=wrap;rounded=0;" parent="1" vertex="1">
          <mxGeometry x="1076" y="-775" width="140" height="30" as="geometry" />
        </mxCell>
        <mxCell id="88yHHtkOrPNAxC5C-WaW-162" value="&lt;font style=&quot;font-size: 20px;&quot;&gt;Card&lt;/font&gt;" style="text;html=1;strokeColor=none;fillColor=none;align=center;verticalAlign=middle;whiteSpace=wrap;rounded=0;" parent="1" vertex="1">
          <mxGeometry x="1245" y="-778" width="60" height="30" as="geometry" />
        </mxCell>
        <mxCell id="88yHHtkOrPNAxC5C-WaW-169" value="Usuario" style="html=1;shadow=0;dashed=0;shape=mxgraph.bootstrap.rrect;rSize=5;strokeColor=#314354;strokeWidth=1;fillColor=#647687;whiteSpace=wrap;align=center;verticalAlign=middle;spacingLeft=0;fontStyle=0;fontSize=16;spacing=5;fontColor=#ffffff;" parent="1" vertex="1">
          <mxGeometry x="1334" y="-794.26" width="132" height="62.51" as="geometry" />
        </mxCell>
        <mxCell id="88yHHtkOrPNAxC5C-WaW-170" value="&lt;span style=&quot;color: rgb(0, 0, 0); font-family: Helvetica; font-size: 20px; font-style: normal; font-variant-ligatures: normal; font-variant-caps: normal; font-weight: 400; letter-spacing: normal; orphans: 2; text-align: center; text-indent: 0px; text-transform: none; widows: 2; word-spacing: 0px; -webkit-text-stroke-width: 0px; background-color: rgb(255, 255, 255); text-decoration-thickness: initial; text-decoration-style: initial; text-decoration-color: initial; float: none; display: inline !important;&quot;&gt;UPOCOSMETIC&lt;/span&gt;" style="text;whiteSpace=wrap;html=1;" parent="1" vertex="1">
          <mxGeometry x="905" y="-783" width="157" height="46" as="geometry" />
        </mxCell>
        <mxCell id="88yHHtkOrPNAxC5C-WaW-171" value="Name" style="text;html=1;strokeColor=none;fillColor=none;align=center;verticalAlign=middle;whiteSpace=wrap;rounded=0;fontSize=16;" parent="1" vertex="1">
          <mxGeometry x="1000" y="-601" width="60" height="30" as="geometry" />
        </mxCell>
        <mxCell id="88yHHtkOrPNAxC5C-WaW-172" value="" style="html=1;shadow=0;dashed=0;shape=mxgraph.bootstrap.rrect;rSize=5;strokeColor=#CED4DA;html=1;whiteSpace=wrap;fillColor=#FFFFFF;fontColor=#7D868C;align=left;spacingLeft=0;spacing=15;fontSize=14;" parent="1" vertex="1">
          <mxGeometry x="1003" y="-559" width="1266" height="30" as="geometry" />
        </mxCell>
        <mxCell id="88yHHtkOrPNAxC5C-WaW-173" value="Email" style="text;html=1;strokeColor=none;fillColor=none;align=center;verticalAlign=middle;whiteSpace=wrap;rounded=0;fontSize=16;fontColor=#000000;fontStyle=1" parent="1" vertex="1">
          <mxGeometry x="1003" y="-502" width="60" height="30" as="geometry" />
        </mxCell>
        <mxCell id="88yHHtkOrPNAxC5C-WaW-174" value="" style="html=1;shadow=0;dashed=0;shape=mxgraph.bootstrap.rrect;rSize=5;strokeColor=#CED4DA;html=1;whiteSpace=wrap;fillColor=#FFFFFF;fontColor=#7D868C;align=left;spacingLeft=0;spacing=15;fontSize=14;" parent="1" vertex="1">
          <mxGeometry x="1006" y="-460" width="1266" height="30" as="geometry" />
        </mxCell>
        <mxCell id="88yHHtkOrPNAxC5C-WaW-175" value="Address" style="text;html=1;strokeColor=none;fillColor=none;align=center;verticalAlign=middle;whiteSpace=wrap;rounded=0;fontSize=16;fontColor=#000000;fontStyle=1" parent="1" vertex="1">
          <mxGeometry x="1000" y="-402" width="60" height="30" as="geometry" />
        </mxCell>
        <mxCell id="88yHHtkOrPNAxC5C-WaW-176" value="" style="html=1;shadow=0;dashed=0;shape=mxgraph.bootstrap.rrect;rSize=5;strokeColor=#CED4DA;html=1;whiteSpace=wrap;fillColor=#FFFFFF;fontColor=#7D868C;align=left;spacingLeft=0;spacing=15;fontSize=14;" parent="1" vertex="1">
          <mxGeometry x="1003" y="-360" width="1266" height="30" as="geometry" />
        </mxCell>
        <mxCell id="88yHHtkOrPNAxC5C-WaW-177" value="City" style="text;html=1;strokeColor=none;fillColor=none;align=center;verticalAlign=middle;whiteSpace=wrap;rounded=0;fontSize=16;fontColor=#000000;fontStyle=1" parent="1" vertex="1">
          <mxGeometry x="1003" y="-303" width="60" height="30" as="geometry" />
        </mxCell>
        <mxCell id="88yHHtkOrPNAxC5C-WaW-178" value="" style="html=1;shadow=0;dashed=0;shape=mxgraph.bootstrap.rrect;rSize=5;strokeColor=#CED4DA;html=1;whiteSpace=wrap;fillColor=#FFFFFF;fontColor=#7D868C;align=left;spacingLeft=0;spacing=15;fontSize=14;" parent="1" vertex="1">
          <mxGeometry x="1006" y="-261" width="1266" height="30" as="geometry" />
        </mxCell>
        <mxCell id="88yHHtkOrPNAxC5C-WaW-185" value="Name" style="text;html=1;strokeColor=none;fillColor=none;align=center;verticalAlign=middle;whiteSpace=wrap;rounded=0;fontSize=16;fontColor=#000000;fontStyle=1" parent="1" vertex="1">
          <mxGeometry x="1000" y="-598" width="60" height="30" as="geometry" />
        </mxCell>
        <mxCell id="88yHHtkOrPNAxC5C-WaW-186" value="" style="html=1;shadow=0;dashed=0;shape=mxgraph.bootstrap.rrect;rSize=5;strokeColor=#CED4DA;html=1;whiteSpace=wrap;fillColor=#FFFFFF;fontColor=#7D868C;align=left;spacingLeft=0;spacing=15;fontSize=14;" parent="1" vertex="1">
          <mxGeometry x="1003" y="-556" width="1266" height="30" as="geometry" />
        </mxCell>
        <mxCell id="88yHHtkOrPNAxC5C-WaW-188" value="" style="html=1;shadow=0;dashed=0;shape=mxgraph.bootstrap.rrect;rSize=5;strokeColor=#CED4DA;html=1;whiteSpace=wrap;fillColor=#FFFFFF;fontColor=#7D868C;align=left;spacingLeft=0;spacing=15;fontSize=14;" parent="1" vertex="1">
          <mxGeometry x="1006" y="-457" width="1266" height="30" as="geometry" />
        </mxCell>
        <mxCell id="88yHHtkOrPNAxC5C-WaW-189" value="" style="html=1;shadow=0;dashed=0;shape=mxgraph.bootstrap.rrect;rSize=5;strokeColor=#CED4DA;html=1;whiteSpace=wrap;fillColor=#FFFFFF;fontColor=#7D868C;align=left;spacingLeft=0;spacing=15;fontSize=14;" parent="1" vertex="1">
          <mxGeometry x="1006" y="37" width="1266" height="30" as="geometry" />
        </mxCell>
        <mxCell id="88yHHtkOrPNAxC5C-WaW-190" value="Card Expiry" style="text;html=1;strokeColor=none;fillColor=none;align=center;verticalAlign=middle;whiteSpace=wrap;rounded=0;fontSize=16;fontColor=#000000;fontStyle=1" parent="1" vertex="1">
          <mxGeometry x="1006" y="94" width="91" height="30" as="geometry" />
        </mxCell>
        <mxCell id="88yHHtkOrPNAxC5C-WaW-191" value="" style="html=1;shadow=0;dashed=0;shape=mxgraph.bootstrap.rrect;rSize=5;strokeColor=#CED4DA;html=1;whiteSpace=wrap;fillColor=#FFFFFF;fontColor=#7D868C;align=left;spacingLeft=0;spacing=15;fontSize=14;" parent="1" vertex="1">
          <mxGeometry x="1009" y="136" width="1266" height="30" as="geometry" />
        </mxCell>
        <mxCell id="88yHHtkOrPNAxC5C-WaW-192" value="State" style="text;html=1;strokeColor=none;fillColor=none;align=center;verticalAlign=middle;whiteSpace=wrap;rounded=0;fontSize=16;fontColor=#000000;fontStyle=1" parent="1" vertex="1">
          <mxGeometry x="1003" y="-201" width="60" height="30" as="geometry" />
        </mxCell>
        <mxCell id="88yHHtkOrPNAxC5C-WaW-193" value="" style="html=1;shadow=0;dashed=0;shape=mxgraph.bootstrap.rrect;rSize=5;strokeColor=#CED4DA;html=1;whiteSpace=wrap;fillColor=#FFFFFF;fontColor=#7D868C;align=left;spacingLeft=0;spacing=15;fontSize=14;" parent="1" vertex="1">
          <mxGeometry x="1006" y="-159" width="1266" height="30" as="geometry" />
        </mxCell>
        <mxCell id="88yHHtkOrPNAxC5C-WaW-194" value="Zip Code" style="text;html=1;strokeColor=none;fillColor=none;align=center;verticalAlign=middle;whiteSpace=wrap;rounded=0;fontSize=16;fontColor=#000000;fontStyle=1" parent="1" vertex="1">
          <mxGeometry x="1006" y="-102" width="82" height="30" as="geometry" />
        </mxCell>
        <mxCell id="88yHHtkOrPNAxC5C-WaW-195" value="" style="html=1;shadow=0;dashed=0;shape=mxgraph.bootstrap.rrect;rSize=5;strokeColor=#CED4DA;html=1;whiteSpace=wrap;fillColor=#FFFFFF;fontColor=#7D868C;align=left;spacingLeft=0;spacing=15;fontSize=14;" parent="1" vertex="1">
          <mxGeometry x="1009" y="-60" width="1266" height="30" as="geometry" />
        </mxCell>
        <mxCell id="88yHHtkOrPNAxC5C-WaW-196" value="Card CVC" style="text;html=1;strokeColor=none;fillColor=none;align=center;verticalAlign=middle;whiteSpace=wrap;rounded=0;fontSize=16;fontColor=#000000;fontStyle=1" parent="1" vertex="1">
          <mxGeometry x="1004.5" y="204" width="91.5" height="30" as="geometry" />
        </mxCell>
        <mxCell id="88yHHtkOrPNAxC5C-WaW-197" value="" style="html=1;shadow=0;dashed=0;shape=mxgraph.bootstrap.rrect;rSize=5;strokeColor=#CED4DA;html=1;whiteSpace=wrap;fillColor=#FFFFFF;fontColor=#7D868C;align=left;spacingLeft=0;spacing=15;fontSize=14;" parent="1" vertex="1">
          <mxGeometry x="1007.5" y="246" width="1266" height="30" as="geometry" />
        </mxCell>
        <mxCell id="88yHHtkOrPNAxC5C-WaW-198" value="Agregar al carrito" style="html=1;shadow=0;dashed=0;shape=mxgraph.bootstrap.rrect;rSize=5;strokeWidth=1;whiteSpace=wrap;align=center;verticalAlign=middle;spacingLeft=0;fontStyle=0;fontSize=16;spacing=5;" parent="1" vertex="1">
          <mxGeometry x="1003" y="313" width="132" height="62.51" as="geometry" />
        </mxCell>
        <mxCell id="88yHHtkOrPNAxC5C-WaW-199" value="Card Number" style="text;html=1;strokeColor=none;fillColor=none;align=center;verticalAlign=middle;whiteSpace=wrap;rounded=0;fontSize=16;fontColor=#000000;fontStyle=1" parent="1" vertex="1">
          <mxGeometry x="1007.5" y="-11" width="110.5" height="30" as="geometry" />
        </mxCell>
        <mxCell id="88yHHtkOrPNAxC5C-WaW-202" value="" style="rounded=0;whiteSpace=wrap;html=1;fillColor=#e1d5e7;strokeColor=#9673a6;" parent="1" vertex="1">
          <mxGeometry x="2412" y="-1924.5" width="1484" height="1249.5" as="geometry" />
        </mxCell>
        <mxCell id="88yHHtkOrPNAxC5C-WaW-203" value="" style="rounded=0;whiteSpace=wrap;html=1;fillColor=#f5f5f5;fontColor=#333333;strokeColor=#666666;" parent="1" vertex="1">
          <mxGeometry x="2413" y="-1924.5" width="1486" height="104" as="geometry" />
        </mxCell>
        <mxCell id="88yHHtkOrPNAxC5C-WaW-204" value="Carrito de compras" style="text;html=1;strokeColor=none;fillColor=none;align=center;verticalAlign=middle;whiteSpace=wrap;rounded=0;fontSize=30;" parent="1" vertex="1">
          <mxGeometry x="2554" y="-1750" width="267" height="30" as="geometry" />
        </mxCell>
        <mxCell id="88yHHtkOrPNAxC5C-WaW-205" value="" style="html=1;shadow=0;dashed=0;shape=mxgraph.bootstrap.rrect;rSize=5;strokeColor=#DFDFDF;html=1;whiteSpace=wrap;fillColor=#ffffff;fontColor=#000000;verticalAlign=top;align=left;spacing=20;spacingBottom=0;fontSize=14;spacingTop=160;" parent="1" vertex="1">
          <mxGeometry x="2540" y="-1617" width="370" height="572" as="geometry" />
        </mxCell>
        <mxCell id="88yHHtkOrPNAxC5C-WaW-206" value="Imagen del producto" style="html=1;shadow=0;dashed=0;shape=mxgraph.bootstrap.topButton;rSize=5;perimeter=none;whiteSpace=wrap;fillColor=#868E96;strokeColor=#DFDFDF;fontColor=#DEE2E6;resizeWidth=1;fontSize=18;" parent="88yHHtkOrPNAxC5C-WaW-205" vertex="1">
          <mxGeometry width="370" height="587" relative="1" as="geometry">
            <mxPoint x="3" y="-3" as="offset" />
          </mxGeometry>
        </mxCell>
        <mxCell id="88yHHtkOrPNAxC5C-WaW-208" value="&lt;font style=&quot;font-size: 20px;&quot;&gt;Productos&lt;/font&gt;" style="text;html=1;strokeColor=none;fillColor=none;align=center;verticalAlign=middle;whiteSpace=wrap;rounded=0;" parent="1" vertex="1">
          <mxGeometry x="2629" y="-1884.5" width="140" height="30" as="geometry" />
        </mxCell>
        <mxCell id="88yHHtkOrPNAxC5C-WaW-209" value="&lt;font style=&quot;font-size: 20px;&quot;&gt;Card&lt;/font&gt;" style="text;html=1;strokeColor=none;fillColor=none;align=center;verticalAlign=middle;whiteSpace=wrap;rounded=0;" parent="1" vertex="1">
          <mxGeometry x="2798" y="-1887.5" width="60" height="30" as="geometry" />
        </mxCell>
        <mxCell id="88yHHtkOrPNAxC5C-WaW-210" value="&lt;b&gt;&lt;font style=&quot;font-size: 20px&quot;&gt;&lt;br&gt;&lt;br&gt;&lt;br&gt;&lt;br&gt;&lt;br&gt;&lt;br&gt;&lt;br&gt;&lt;br&gt;&lt;/font&gt;&lt;/b&gt;Producto: Nombre del producto&lt;br&gt;&lt;br&gt;DescripciÃ³n del producto&lt;br&gt;&lt;br&gt;Precio:&amp;nbsp;" style="html=1;shadow=0;dashed=0;shape=mxgraph.bootstrap.rrect;rSize=5;strokeColor=#DFDFDF;html=1;whiteSpace=wrap;fillColor=#ffffff;fontColor=#000000;verticalAlign=top;align=left;spacing=20;spacingBottom=0;fontSize=14;spacingTop=160;" parent="1" vertex="1">
          <mxGeometry x="3311" y="-969" width="370" height="278.5" as="geometry" />
        </mxCell>
        <mxCell id="88yHHtkOrPNAxC5C-WaW-211" value="" style="html=1;shadow=0;dashed=0;shape=mxgraph.bootstrap.topButton;rSize=5;perimeter=none;whiteSpace=wrap;fillColor=#868E96;strokeColor=#DFDFDF;fontColor=#DEE2E6;resizeWidth=1;fontSize=18;" parent="88yHHtkOrPNAxC5C-WaW-210" vertex="1">
          <mxGeometry width="370" relative="1" as="geometry">
            <mxPoint x="3" y="-3" as="offset" />
          </mxGeometry>
        </mxCell>
        <mxCell id="88yHHtkOrPNAxC5C-WaW-212" value="&lt;b&gt;Comprar&lt;/b&gt;" style="html=1;shadow=0;dashed=0;shape=mxgraph.bootstrap.rrect;rSize=5;strokeColor=#9673a6;strokeWidth=1;fillColor=#e1d5e7;whiteSpace=wrap;align=center;verticalAlign=middle;spacingLeft=0;fontStyle=0;fontSize=16;spacing=5;" parent="88yHHtkOrPNAxC5C-WaW-210" vertex="1">
          <mxGeometry x="23" y="238.08828671328672" width="132" height="30.43537587412587" as="geometry" />
        </mxCell>
        <mxCell id="88yHHtkOrPNAxC5C-WaW-224" value="Total" style="text;html=1;strokeColor=none;fillColor=none;align=center;verticalAlign=middle;whiteSpace=wrap;rounded=0;" parent="88yHHtkOrPNAxC5C-WaW-210" vertex="1">
          <mxGeometry x="26" y="43" width="60" height="30" as="geometry" />
        </mxCell>
        <mxCell id="88yHHtkOrPNAxC5C-WaW-223" value="Productos" style="text;html=1;strokeColor=none;fillColor=none;align=center;verticalAlign=middle;whiteSpace=wrap;rounded=0;" parent="88yHHtkOrPNAxC5C-WaW-210" vertex="1">
          <mxGeometry x="26" y="97" width="60" height="30" as="geometry" />
        </mxCell>
        <mxCell id="88yHHtkOrPNAxC5C-WaW-220" value="Precio total" style="text;html=1;strokeColor=none;fillColor=none;align=center;verticalAlign=middle;whiteSpace=wrap;rounded=0;" parent="88yHHtkOrPNAxC5C-WaW-210" vertex="1">
          <mxGeometry x="29" y="161" width="60" height="30" as="geometry" />
        </mxCell>
        <mxCell id="88yHHtkOrPNAxC5C-WaW-216" value="Usuario" style="html=1;shadow=0;dashed=0;shape=mxgraph.bootstrap.rrect;rSize=5;strokeColor=#314354;strokeWidth=1;fillColor=#647687;whiteSpace=wrap;align=center;verticalAlign=middle;spacingLeft=0;fontStyle=0;fontSize=16;spacing=5;fontColor=#ffffff;" parent="1" vertex="1">
          <mxGeometry x="2887" y="-1903.76" width="132" height="62.51" as="geometry" />
        </mxCell>
        <mxCell id="88yHHtkOrPNAxC5C-WaW-217" value="&lt;span style=&quot;color: rgb(0, 0, 0); font-family: Helvetica; font-size: 20px; font-style: normal; font-variant-ligatures: normal; font-variant-caps: normal; font-weight: 400; letter-spacing: normal; orphans: 2; text-align: center; text-indent: 0px; text-transform: none; widows: 2; word-spacing: 0px; -webkit-text-stroke-width: 0px; background-color: rgb(255, 255, 255); text-decoration-thickness: initial; text-decoration-style: initial; text-decoration-color: initial; float: none; display: inline !important;&quot;&gt;UPOCOSMETIC&lt;/span&gt;" style="text;whiteSpace=wrap;html=1;" parent="1" vertex="1">
          <mxGeometry x="2458" y="-1892.5" width="157" height="46" as="geometry" />
        </mxCell>
        <mxCell id="88yHHtkOrPNAxC5C-WaW-218" value="Imagen" style="text;html=1;strokeColor=none;fillColor=none;align=center;verticalAlign=middle;whiteSpace=wrap;rounded=0;fontColor=#000000;fontStyle=1;fontSize=14;" parent="1" vertex="1">
          <mxGeometry x="2547" y="-1677" width="60" height="30" as="geometry" />
        </mxCell>
        <mxCell id="88yHHtkOrPNAxC5C-WaW-229" value="Producto" style="text;html=1;strokeColor=none;fillColor=none;align=center;verticalAlign=middle;whiteSpace=wrap;rounded=0;" parent="1" vertex="1">
          <mxGeometry x="3116" y="-1698" width="60" height="30" as="geometry" />
        </mxCell>
        <mxCell id="88yHHtkOrPNAxC5C-WaW-230" value="Precio Unitario" style="text;html=1;strokeColor=none;fillColor=none;align=center;verticalAlign=middle;whiteSpace=wrap;rounded=0;" parent="1" vertex="1">
          <mxGeometry x="3215" y="-1698" width="89" height="30" as="geometry" />
        </mxCell>
        <mxCell id="88yHHtkOrPNAxC5C-WaW-231" value="Cantidad" style="text;html=1;strokeColor=none;fillColor=none;align=center;verticalAlign=middle;whiteSpace=wrap;rounded=0;" parent="1" vertex="1">
          <mxGeometry x="3345" y="-1698" width="60" height="30" as="geometry" />
        </mxCell>
        <mxCell id="88yHHtkOrPNAxC5C-WaW-232" value="Precio Total" style="text;html=1;strokeColor=none;fillColor=none;align=center;verticalAlign=middle;whiteSpace=wrap;rounded=0;" parent="1" vertex="1">
          <mxGeometry x="3463" y="-1698" width="60" height="30" as="geometry" />
        </mxCell>
        <mxCell id="88yHHtkOrPNAxC5C-WaW-235" value="&lt;font color=&quot;#ffffff&quot;&gt;Remover&lt;/font&gt;" style="html=1;shadow=0;dashed=0;shape=mxgraph.bootstrap.rrect;rSize=5;strokeColor=#b85450;strokeWidth=1;fillColor=#FF0000;whiteSpace=wrap;align=center;verticalAlign=middle;spacingLeft=0;fontStyle=0;fontSize=16;spacing=5;gradientColor=#ea6b66;" parent="1" vertex="1">
          <mxGeometry x="3549" y="-1628" width="136" height="40" as="geometry" />
        </mxCell>
        <mxCell id="88yHHtkOrPNAxC5C-WaW-236" value="" style="html=1;shadow=0;dashed=0;shape=mxgraph.bootstrap.rrect;rSize=5;strokeColor=#DEE2E6;html=1;whiteSpace=wrap;fillColor=#ffffff;fontColor=#0085FC;" parent="1" vertex="1">
          <mxGeometry x="3311" y="-1636" width="150" height="30" as="geometry" />
        </mxCell>
        <mxCell id="88yHHtkOrPNAxC5C-WaW-237" value="&lt;&lt;" style="strokeColor=inherit;fillColor=inherit;gradientColor=inherit;fontColor=inherit;html=1;shadow=0;dashed=0;shape=mxgraph.bootstrap.leftButton;rSize=5;perimeter=none;whiteSpace=wrap;resizeHeight=1;fontSize=14;" parent="88yHHtkOrPNAxC5C-WaW-236" vertex="1">
          <mxGeometry width="30" height="30" relative="1" as="geometry" />
        </mxCell>
        <mxCell id="88yHHtkOrPNAxC5C-WaW-238" value="" style="strokeColor=inherit;fillColor=inherit;gradientColor=inherit;fontColor=inherit;html=1;shadow=0;dashed=0;perimeter=none;whiteSpace=wrap;resizeHeight=1;fontSize=14;" parent="88yHHtkOrPNAxC5C-WaW-236" vertex="1">
          <mxGeometry width="30" height="30" relative="1" as="geometry">
            <mxPoint x="30" as="offset" />
          </mxGeometry>
        </mxCell>
        <mxCell id="88yHHtkOrPNAxC5C-WaW-239" value="2" style="strokeColor=inherit;fillColor=inherit;gradientColor=inherit;fontColor=inherit;html=1;shadow=0;dashed=0;perimeter=none;whiteSpace=wrap;resizeHeight=1;fontSize=14;" parent="88yHHtkOrPNAxC5C-WaW-236" vertex="1">
          <mxGeometry width="30" height="30" relative="1" as="geometry">
            <mxPoint x="180" y="-409" as="offset" />
          </mxGeometry>
        </mxCell>
        <mxCell id="88yHHtkOrPNAxC5C-WaW-240" value="" style="strokeColor=inherit;fillColor=inherit;gradientColor=inherit;fontColor=inherit;html=1;shadow=0;dashed=0;perimeter=none;whiteSpace=wrap;resizeHeight=1;fontSize=14;" parent="88yHHtkOrPNAxC5C-WaW-236" vertex="1">
          <mxGeometry width="30" height="30" relative="1" as="geometry">
            <mxPoint x="97" y="-216" as="offset" />
          </mxGeometry>
        </mxCell>
        <mxCell id="88yHHtkOrPNAxC5C-WaW-241" value="&gt;&gt;" style="strokeColor=inherit;fillColor=inherit;gradientColor=inherit;fontColor=inherit;html=1;shadow=0;dashed=0;shape=mxgraph.bootstrap.rightButton;rSize=5;perimeter=none;whiteSpace=wrap;resizeHeight=1;fontSize=14;" parent="88yHHtkOrPNAxC5C-WaW-236" vertex="1">
          <mxGeometry x="1" width="30" height="30" relative="1" as="geometry">
            <mxPoint x="-30" as="offset" />
          </mxGeometry>
        </mxCell>
      </root>
    </mxGraphModel>
  </diagram>
</mxfile>
